<svg id="Layer_1" data-name="Layer 1" xmlns="http://www.w3.org/2000/svg" viewBox="0 0 841.89 595.28"><title>samsunglogo</title><path d="M169.8,277.19c-5.16,6.43-6,13.61-4.28,21.26,1.14,4.95,4.47,8.49,8.54,11.2,4.49,3,9.25,5.58,13.85,8.4,2.74,1.68,5.52,3.33,8.08,5.27a8.55,8.55,0,0,1,3.54,9.26c-.93,4.31-4.54,5.68-8.3,5.23-4.32-.52-6.49-3.09-6.24-7.23a40,40,0,0,0,0-5.47c0-.5-.74-1.35-1.14-1.36-6.38-.09-12.75-.06-19.11-.06-1.65,10.93.78,21.12,11.89,25.43a41.32,41.32,0,0,0,30.73-.07c7.48-2.91,11.25-8.79,11.64-16.75a53.08,53.08,0,0,0-.18-9.6c-.75-5.62-4.28-9.66-8.8-12.63-5.12-3.36-10.57-6.19-15.82-9.35a73.23,73.23,0,0,1-7.37-5c-2.53-2-2.64-4.87-1.89-7.67.89-3.32,3.68-4.43,7-4.21,3.73.25,5.86,2.35,6.09,5.57.11,1.45.1,2.92.09,4.38,0,1.11.36,1.65,1.59,1.64,5.41,0,10.82,0,16.24,0,.9,0,1.62-.18,1.53-1.27-.26-3.44-.14-7-.93-10.29-1.52-6.34-6.22-9.78-12.2-11.59-6.21-1.88-12.56-1.86-18.94-1.19a1.37,1.37,0,0,1-1-.23c3.45-1.41,6.89-2.85,10.35-4.23,36.9-14.68,74.73-26.49,113.14-36.49,24.35-6.34,48.86-12,73.57-16.66,17.74-3.37,35.55-6.37,53.38-9.25,12.68-2.05,25.43-3.75,38.18-5.39,9.26-1.19,18.57-2.1,27.86-3,8.94-.9,17.88-1.73,26.84-2.45q10-.8,20-1.22c15.6-.64,31.21-1.46,46.82-1.65,14-.17,28,.14,41.94.71,11.58.47,23.16,1.34,34.7,2.52,23.38,2.39,46.54,6.08,69,13.41,12.17,4,23.91,8.9,34.24,16.67,6.56,4.93,12.11,10.77,15,18.61,3.63,9.74,2,19.12-2.55,28.13-5,9.92-12.45,17.94-20.65,25.28-13.53,12.11-28.66,21.95-44.53,30.63-11.18,6.11-22.62,11.75-33.94,17.59l-.43-.55,1.17-1.41a17.44,17.44,0,0,0,4.08-10.7c.26-7.71.22-15.43.41-23.15,0-1.71-.53-2.14-2.17-2.12-7.66.08-15.32,0-23,0h-2.06c0,3.6,0,7,.05,10.48,0,.33.76.88,1.2.92a34.43,34.43,0,0,0,4.56,0c1.37-.07,1.95.3,1.89,1.82-.12,3.16-.14,6.33,0,9.48.23,5.94-4.88,8.14-9.11,7.39-4.63-.82-6.31-3.09-6.32-8.45q0-15.14,0-30.29c0-2,.15-4,.26-6,.27-5.21,4.63-7.15,8.65-6.57,4.18.61,6,2.72,6.21,7,.08,1.33.11,2.67.09,4,0,1.12.37,1.64,1.6,1.63,5.47,0,10.95,0,16.42-.07.47,0,1.33-.74,1.33-1.13A55.45,55.45,0,0,0,692,287a17,17,0,0,0-11.2-13.33,40.68,40.68,0,0,0-30,.07c-7.46,2.95-11.39,8.91-11.64,16.79-.39,12.63-.39,25.28-.32,37.92a27,27,0,0,0,1.54,8.72c2.39,6.74,7.86,10.11,14.44,11.87,6,1.61,12.11,1.61,18.33,1l-4.48,1.88c-1.57.66-3.13,1.33-4.7,2a917.83,917.83,0,0,1-124.75,40.18q-29.9,7.41-60.09,13.68c-16.31,3.41-32.76,6.17-49.2,8.94-12.79,2.16-25.64,4-38.49,5.76-9.61,1.32-19.27,2.38-28.92,3.4-11,1.16-22,2.33-33,3.17-9.93.75-19.89,1.42-29.84,1.47q-48.53.27-97.06,0c-7,0-13.94-.8-20.88-1.51q-10.95-1.12-21.83-2.8c-23.8-3.69-47.26-8.67-69-19.69-7.85-4-15.09-8.87-20.86-15.67-9.27-10.94-10.68-23-5-36,4.41-10.12,11.53-18.25,19.49-25.68,15.27-14.26,32.77-25.33,51.1-35.11,10.65-5.68,21.62-10.76,32.45-16.11C168.7,277.64,169.25,277.43,169.8,277.19Zm180.15,52.75-.27.08q-1-6.36-2-12.72Q345.35,303.14,343,289q-1.16-7.17-2.28-14.35c-.19-1.23-.74-1.68-2.05-1.68q-13.77.09-27.55,0c-1.33,0-2,.26-2,1.8,0,3.1-.19,6.19-.25,9.29q-.43,22.15-.83,44.31c-.12,6.26-.28,12.52-.51,18.77-.05,1.39.39,1.83,1.72,1.82,5.23,0,10.46-.05,15.69,0,1.5,0,2-.49,2-2q.13-30.92.35-61.83c0-1.05,0-2.11,0-3.16a12.07,12.07,0,0,1,.74,2.62q3.72,20,7.43,40c1.42,7.62,2.89,15.22,4.26,22.85.21,1.15.69,1.53,1.78,1.53q8.3,0,16.6,0a1.46,1.46,0,0,0,1.68-1.45c.34-2.27.8-4.53,1.22-6.79L369,298.38l2.95-15.8.58,0v66.13c1.12.09,1.83.19,2.55.19,4.86,0,9.73-.06,14.59,0,1.78,0,2.43-.41,2.36-2.34-.33-9.66-.55-19.32-.75-29-.19-9.24-.31-18.48-.48-27.72-.09-5-.24-10.09-.31-15.13,0-1.26-.36-1.86-1.77-1.85q-14,.07-27.91,0c-1.35,0-1.76.53-1.92,1.79-.31,2.58-.8,5.14-1.21,7.71L353,310.79ZM573.6,287.76l.22,0c.12.32.25.63.35,1q8.76,28.76,17.48,57.53a2.17,2.17,0,0,0,2.52,1.86c7.84-.08,15.68-.07,23.53,0,1.4,0,1.91-.38,1.91-1.84q-.05-35.65,0-71.31c0-1.53-.53-2-2-2-5,.07-10.09.09-15.14,0-1.59,0-2.09.42-2.06,2,.21,9.72.31,19.45.46,29.17q.19,11.76.42,23.52c0,1.27.12,2.54.19,3.82-1.32-3.45-2.35-6.92-3.37-10.4q-6.78-23.19-13.55-46.38c-.31-1.07-.66-1.78-2.05-1.77-8.39.07-16.78.06-25.17,0-1.36,0-1.78.47-1.78,1.8q0,35.75,0,71.49c0,1.3.32,1.83,1.73,1.81q7.84-.11,15.68,0c1.41,0,1.78-.52,1.72-1.82-.15-3-.23-6.07-.29-9.11-.09-5.23-.13-10.45-.21-15.68Q573.91,304.6,573.6,287.76ZM535,303.11h0c0-9.3,0-18.6,0-27.9,0-1.71-.39-2.32-2.2-2.28-5,.12-10.09.11-15.14,0-1.73,0-2.3.44-2.28,2.23.09,8.27,0,16.54,0,24.8,0,10.15,0,20.31,0,30.46a6.25,6.25,0,0,1-4.84,6.44c-5.38,1.47-9.52-1.66-9.52-7.24q0-27.27,0-54.53c0-1.67-.45-2.19-2.14-2.15-5,.1-10.09.12-15.14,0-1.87,0-2.35.54-2.34,2.36.07,14.16,0,28.33.05,42.49,0,4.92,0,9.85.35,14.75.56,8.24,4.93,13.79,12.7,16.51,7,2.46,14.24,2.46,21.56,1.53,11.89-1.52,18.8-9.11,18.85-21C535,320.74,535,311.92,535,303.11ZM293,348.74c-.43-2.41-.78-4.5-1.17-6.58q-3.38-18.31-6.77-36.61c-1.89-10.24-3.82-20.47-5.65-30.72-.25-1.41-.76-1.89-2.22-1.89q-15.14.09-30.28,0a1.84,1.84,0,0,0-2.14,1.81q-2.19,12-4.41,23.93-4,21.34-7.92,42.67c-.45,2.42-.85,4.84-1.3,7.44.92.06,1.57.15,2.23.15,5.47,0,10.95-.06,16.42,0,1.75,0,2.25-.68,2.47-2.28.84-6.12,1.82-12.22,2.74-18.32q1.91-12.66,3.81-25.33,1.65-11,3.32-21.9a50.57,50.57,0,0,1,1.18,6.09c1.38,9.53,2.73,19.06,4.13,28.59,1.52,10.36,3.13,20.71,4.59,31.08.22,1.56.72,2.07,2.25,2.05,5.59-.06,11.19,0,16.78,0C291.6,348.93,292.18,348.82,293,348.74Zm150.57-53.3c6.26,0,12.21,0,18.16-.06.34,0,.93-.83,1-1.31a40.27,40.27,0,0,0,0-5.1c-.47-7.74-4.13-13.3-11.6-15.77a42.91,42.91,0,0,0-28.22.22,16.84,16.84,0,0,0-10.92,10.51,29.55,29.55,0,0,0-1.3,6.57c-.62,5.74.53,11.09,4.72,15.28a48.35,48.35,0,0,0,8.09,6.45c4.65,3,9.6,5.48,14.3,8.38a26.92,26.92,0,0,1,5.59,4.61c2.19,2.38,2.37,6.68.79,9.4-1.34,2.3-4.47,3.45-7.91,2.9s-5.59-2.86-5.65-6.45c0-2,0-4,0-6,0-1-.39-1.39-1.41-1.38q-8.94,0-17.88,0c-.93,0-1.31.33-1.29,1.27,0,1.95,0,3.89,0,5.84.17,8.72,4.8,15.41,13,18.33a42.86,42.86,0,0,0,28,.25c6.47-2.09,11-6.38,12.53-13.25.38-1.7.47-3.48.69-5.22,1-8.15-1.12-15.17-8-20-4.51-3.16-9.4-5.77-14.12-8.63-3-1.79-6-3.5-8.84-5.42a6.9,6.9,0,0,1-3.16-6.56c.25-3.94,2.7-6.18,6.86-6.11,3.92.07,6.48,2.52,6.54,6.31C443.56,292,443.54,293.59,443.54,295.44Z"/></svg>