<svg id="Layer_1" data-name="Layer 1" xmlns="http://www.w3.org/2000/svg" viewBox="0 0 595.28 841.89"><title>samsung</title><path d="M369.26,780.62l-.27-1.31-.2-4.5.09-27q0-56,0-112.09,0-33.3,0-66.6c.06-1.75.16-3.49.16-5.24q0-206.77,0-413.53c0-5.63-.13-11.27-.19-16.9V123.17q.38-.28.77-.54l.62,1.55q0,222.47,0,444.95c0,9.34.12,18.68.18,28-.06,1.75-.16,3.49-.16,5.24q-.07,89-.12,178.05A3.55,3.55,0,0,1,369.26,780.62Z" style="fill:#959595"/><path d="M198.67,780.46c-.06-8.36-.18-16.72-.18-25.08q0-312.17,0-624.34c0-2.33-1.19-5,1.08-7.06l.21,1.57c-.06,6.61-.17,13.22-.17,19.84q0,317.55-.05,635.1Q199.14,780.46,198.67,780.46Z" style="fill:#242424"/><path d="M370.36,597.15c-.06-9.34-.18-18.68-.18-28q0-222.47,0-444.95c2.25.7,1.28,2.56,1.28,3.91q.05,233.37,0,466.74a22.75,22.75,0,0,1-.23,2.31Z" style="fill:#232323"/><path d="M370.36,597.15h.88c.08,15.76.21,31.52.22,47.27q0,66.56,0,133.13c0,1.36-.13,2.72-.2,4.07l-1.2-1.18q.06-89,.12-178.05C370.19,600.64,370.3,598.9,370.36,597.15Z" style="fill:#212020"/><path d="M228.31,28.29l.3-1.35,3.73.32c1.56,1.68,3.62,1.1,5.49,1.1q47.1,0,94.2,0c1.85,0,3.93.71,5.43-1.13l4.25.06.73,1.76-.34,1.76c-2.09-.24-3.33,1.17-4.68,2.38.39-4.65-3-3.43-5.47-3.43q-49.11-.1-98.22-.1l-3.08-.16Z" style="fill:#292828"/><path d="M205.59,117.2c.07-19.39.11-38.77.3-58.16,0-1.65-1.57-4.49,2.05-4.79a4.44,4.44,0,0,1,.94,3.52c-2,1.46-1,3.57-1,5.35-.1,16.85-.07,33.71-.08,50.57Z" style="fill:#646565"/><path d="M365.62,57.43c1.62,5.31.55,10.75.66,16.12.26,12.59.23,25.18.32,37.77l.07,6.94.06.48-1.85-1.47c-1.12-19.52-.5-39-.32-58.57Z" style="fill:#656665"/><path d="M228.6,26.47c-.62-3.09,1.5-2.88,3.46-2.88q53.06,0,106.11,0c1,0,2.43-.38,2.77,1.29q-52.61,0-105.22.08c-1.92,0-4.26-1.23-5.83,1.08Z" style="fill:#222"/><path d="M228.6,26.47l1.29-.42,3.49,0,108.69-.29,1.12,1.36-1.47.19-4.25-.06-105.12,0-3.73-.32Z" style="fill:#959695"/><path d="M313.9,818.33c-13.59,3.53-27.45,1.16-41.16,1.92a40.26,40.26,0,0,1-15.8-2.18,5.62,5.62,0,0,0,0-1.1l2.29-.46c2.12.07,4.23.18,6.35.2q24.28.18,48.57.33Zm-6.39.4v-.46H263.69v.46Z" style="fill:#212020"/><path d="M208.88,57.76a4.44,4.44,0,0,0-.94-3.52c1.16-.46,1-1.55,1.23-2.49a4.91,4.91,0,0,0,.73-.14l2.63,2.57c-1.65,2.09-1.22,4.53-1.14,6.9l-1,1.65-.33,57.94a.93.93,0,0,0-.69,0c-.62-3.27-2.41-.52-3.64-.71l-1.43-.47.08.12,1.21-2.37,2.22-3.52c2-.59,1.13-2.25,1.13-3.41C209,92.76,208.92,75.26,208.88,57.76Z" style="fill:#272727"/><path d="M313.9,818.33l.2-1.31c10.69,2.32,21.51.57,32.26,1,1.76.07,1.43-1.39,1.51-2.47l1.32-.06v0l1.22,2.54c-.3,2-1.72,2.22-3.41,2.22q-15.06,0-30.13,0C315.43,820.23,314.13,820.15,313.9,818.33Z" style="fill:#262626"/><path d="M212.53,54.18l-2.63-2.57a1.83,1.83,0,0,0,.24-.82l1.16-.39,1.32-.44-1.11-.89,1.08-2,1-1,1.18-.39,1-.17-.9-.9,1.24-2.21,1.05-.9c.69-1.3,3-1.61,2.35-3.74l1.11-1,3.26-1.46c1.68.85,1.38,2.39,1.33,3.84-2.25,1.21-3,3.3-3.4,5.64C217.07,46.25,216.32,51.73,212.53,54.18Z" style="fill:#343434"/><path d="M256.9,817a5.62,5.62,0,0,1,0,1.1c-.47,1.08-.92,2.19-2.44,2-1.63-1.53-3.66-.89-5.51-.9-9.43-.08-18.87-.06-28.3-.08a4.84,4.84,0,0,1-1.73-4.55l-.15.07c1.46.08,2.38,2,4.09,1.22,0,1-.06,2.19,1.22,2.15C235.06,817.65,246,819.27,256.9,817Z" style="fill:#303030"/><path d="M342.11,30.81l.34-1.76a1.59,1.59,0,0,0,.86-.68l7.33,6.88-1.48,1.3c-.76,0-1.43-1.11-2.26-.16-3.05.2-3,2.76-3.62,4.79C341.71,37.86,342,34.33,342.11,30.81Z" style="fill:#4c4c4c"/><path d="M220.69,819c9.43,0,18.87,0,28.3.08,1.86,0,3.88-.63,5.51.9l-31.62.19C222,820.21,220.93,820.35,220.69,819Z" style="fill:#232222"/><path d="M356.15,802.92c-1.46-1.64.71-3.27,0-4.9q.49,0,1,0c4.08,1.28,2.37-2,2.81-3.57l.34,0,.33.06,3.55.87.53,1.93a.52.52,0,0,1-.29.73,5.74,5.74,0,0,0-3.6,4.71Z" style="fill:#3b3b3d"/><path d="M353,37.48,359.82,48c-.57,1.24-1.71,1.46-2.88,1.63a2.74,2.74,0,0,1-2-3.5c.26-2.6-1.51-3.82-3.39-5L351.43,40q0-.5-.08-1l1.31-1.26Z" style="fill:#393939"/><path d="M209.06,801.52c-.68-1.64-2.82-2.38-2.76-4.47l.29-2.53,1.24-1.11,2.29-1.3.9,2.36-.76,5.66Z" style="fill:#4a4a4a"/><path d="M370.07,780.44l1.2,1.18c-.81,2.17-.2,5.12-3.33,6a2.68,2.68,0,0,0-1.12-.21c-1.1-3,.75-4.85,2.44-6.79A3.55,3.55,0,0,0,370.07,780.44Z" style="fill:#69686a"/><path d="M356.93,49.6c1.17-.18,2.32-.39,2.88-1.63a16.33,16.33,0,0,1,3.66,6,1.45,1.45,0,0,1-1.06.12l-2.64-.33C358.58,52.52,356.67,51.81,356.93,49.6Z" style="fill:#494948"/><path d="M364.71,797.28l-.53-1.93c-2.66-3.42.08-4,2.49-4.69C368.24,793.53,366.77,795.49,364.71,797.28Z" style="fill:#6d6c6d"/><path d="M223.88,32.86c0-2.41,2.65-2.05,3.66-3.42l.47.38a1,1,0,0,0,.44.92l1.65,0-.11,0c.61,2-.66,2.86-2.14,3.61Z" style="fill:#5a5a5b"/><path d="M203.08,782.79c1.46,1.32,1,3.14,1.28,4.79-2.92.54-3.93-1.31-4.57-3.64C200.81,783.36,201.27,781.14,203.08,782.79Z" style="fill:#6f6f6f"/><path d="M209.06,801.52l1.2-1.4c1.22-.49,2.21,2.08,3.54.27H215l-.37,3.54-1,1.17C212.85,803,209.59,804,209.06,801.52Z" style="fill:#454545"/><path d="M218.82,814.56l.15-.07a7.62,7.62,0,0,1-4-4.86l2-1.15C218.18,810.32,219.65,812.09,218.82,814.56Z" style="fill:#5f5f5f"/><path d="M223.88,32.86l4,1.42c-1.84,1.63-1.25,3.77-1.2,5.79l-1.21,0a1.83,1.83,0,0,1-.18-.89c.05-1.45.35-3-1.33-3.84C224.17,34.49,222,33.71,223.88,32.86Z" style="fill:#1f1f1f"/><path d="M217,808.47l-2,1.15a5.76,5.76,0,0,1-1.36-4.53l1-1.17Z" style="fill:#282828"/><path d="M199.84,125.57l-.21-1.57c0-1.57,2.19-.8,2.4-2.18h1.2a11.32,11.32,0,0,0,1.16,0l.23.19.24-.18a4.67,4.67,0,0,1-2.66,3.46l-1.65.15A1.23,1.23,0,0,1,199.84,125.57Z" style="fill:#575757"/><path d="M203.08,782.79c-1.81-1.66-2.27.57-3.29,1.15l-1.11-3.48q.47,0,.94,0h1.29l.58,0h.58A2.22,2.22,0,0,1,203.08,782.79Z" style="fill:#4a4a4a"/><path d="M351.36,813.16c.59-1.72.3-3.94,2.63-4.68.42,1.82.46,3.53-1.34,4.73Z" style="fill:#5e5d5d"/><path d="M351.36,813.16l1.3,0a7.32,7.32,0,0,1-2.25,4.8l-1.22-2.54Z" style="fill:#5b5a5a"/><path d="M362.42,54a1.45,1.45,0,0,0,1.06-.12,4.5,4.5,0,0,1,2.14,3.5l-1.06,1.28C364.53,56.84,362.14,56.06,362.42,54Z" style="fill:#3a3b3b"/><path d="M360.82,802.72a5.74,5.74,0,0,1,3.6-4.71C364.23,800.35,362.78,801.73,360.82,802.72Z" style="fill:#505052"/><path d="M366.67,118.26l2.15,1.29a3.29,3.29,0,0,1-.05,1.11h-1l-1.17-1.1a5,5,0,0,0,.1-.83Z" style="fill:#232323"/><path d="M207.83,793.4l-1.24,1.11q-.52,0-1,0a3.56,3.56,0,0,1-.27-.92l.43-.46,1-1Z" style="fill:#7b7a7a"/><path d="M349.16,36.55l1.48-1.3c1-.09,1.92,0,1.93,1.35l-1.09,0h-1.17Z" style="fill:#525252"/><path d="M202.26,120.69c.25-1.23,1.19-1.17,2.11-1.12l-.08-.11.27,1.39,0,.09-1.81-.33Z" style="fill:#2d2e2e"/><path d="M343.3,28.38a1.59,1.59,0,0,1-.86.68l-.73-1.76,1.47-.19Z" style="fill:#d1d1d1"/><path d="M204.3,790.89l1.27.21.15,2-.43.46A2.6,2.6,0,0,1,204.3,790.89Z" style="fill:#7b7a7a"/><path d="M228.31,28.29l2.35,1.21a.68.68,0,0,1-.64.07h-1.12l-.9.24-.47-.38Z" style="fill:#575759"/><path d="M367.71,123l-.83-.58.84-.6,1.33,0a.75.75,0,0,1,.51.76q-.39.25-.77.54A1.85,1.85,0,0,1,367.71,123Z" style="fill:#8d8d8d"/><path d="M205.55,794.49q.52,0,1,0L206.3,797C204.94,796.52,205.28,795.49,205.55,794.49Z" style="fill:#9e9d9d"/><path d="M210.15,50.79a1.83,1.83,0,0,1-.24.82,5.1,5.1,0,0,1-.74.14C208.63,50.55,209.48,50.76,210.15,50.79Z" style="fill:#1e1d1d"/><path d="M211.52,49.07l1.11.89-1.32.44Z" style="fill:#e2e1e1"/><path d="M213.65,46l-1,1C212.19,45.94,212.93,46,213.65,46Z" style="fill:#201f1f"/><path d="M214.91,44.59l.9.9-1,.17A7,7,0,0,1,214.91,44.59Z" style="fill:#f4f3f4"/><path d="M217.2,41.48l-1.05.9C215.82,41.29,216.47,41.33,217.2,41.48Z" style="fill:#161616"/><path d="M351.48,36.58l1.09,0a1.1,1.1,0,0,1,.44.88l-.35.24-1.19,0Q351.48,37.16,351.48,36.58Z" style="fill:#29282a"/><path d="M369,121.88l-1.33,0a3.7,3.7,0,0,1,.09-1.15h1Z" style="fill:#222121"/><path d="M366.82,787.41a2.68,2.68,0,0,1,1.12.21l-1.31,1.69Z" style="fill:#9b9c9e"/><path d="M220.66,36.77l-1.11,1C219.32,36.74,219.91,36.66,220.66,36.77Z" style="fill:#2a2a2a"/><path d="M202.26,120.69l.46-.09.5,1.23H202Z" style="fill:#1d1d1d"/><path d="M360,794.47c-.45,1.58,1.26,4.85-2.81,3.57l-1.22-4.66c-1.07-3.1-.43-6.57-2.08-9.54a6,6,0,0,0-1.21-4.16c2-1.64,1-3.33.1-5l-.34-6.88a6,6,0,0,0-.91-4.79l-.29-5.73c.18-2.08.38-4.16-.8-6.06l-.38-4.45c-.25-2,.88-4.16-.8-6L349,735c.22-2.05.27-4.08-.87-5.93l-.31-5.77a9.07,9.07,0,0,0-1.15-6l.21-6.9c1.4-5,1.06-10.16.9-15.28l.3-15c1.3-4.68,1.19-9.44.85-14.22l.31-15.1c1.56-5,.72-10.19.82-15.3l.35-15c1.49-6.2,1-12.49.91-18.77l.19-46.64c1.51-1.67.77-3.68.8-5.55.17-12.54.27-25.09.4-37.63,3.75.27,2.05,3.19,2.07,4.84.14,18.19.09,36.38.1,54.57-1.52,7-1.16,14.16-.85,21.27l-.23,22c-1.33,5.42-1.07,10.94-.92,16.44l-.24,17.44c-.85,5.57-2.2,11.14,0,16.7a3,3,0,0,1,0,.73c-2.48,5.33-.83,11-1.21,16.44-1.07,5.87-2,11.74,0,17.6l.07-.16c-2.57,5.32-.92,10.93-1.1,16.41-.85,3.11-.06,6.2.06,9.3-.13,1.67-.32,3.36,1,4.74l.16,6.94c-.08,2-.4,4.1.93,5.91l.25,5.76c-.07,2-.57,4.18,1.12,5.89q0,2.92.08,5.83l1,7a16.84,16.84,0,0,0,1.11,8.17c-.06,2.8-.52,5.64.92,8.27.09,2,.21,4,1.44,5.75A5.35,5.35,0,0,0,360,794.47Z" style="fill:#f4f3f3"/><path d="M368,569.11c-.07-2.33-.19-4.66-.19-7q0-209.45,0-418.9c0-1.72-.22-3.44-.36-5.15,0-.06-.27-.17-.34-.13a2.11,2.11,0,0,0-.4.41c-2.42-1.1-1.21-2.41-.21-3.71l2.31-1.22c.07,5.63.19,11.27.19,16.9q0,206.77,0,413.53c0,1.75-.11,3.49-.16,5.24Z" style="fill:#606161"/><path d="M365.63,145.31c0,2.72-.13,5.45-.13,8.17q0,206,0,412.06c0,2.33-.15,4.66-.23,7a1,1,0,0,0-.93.08c0-2.72-.13-5.44-.13-8.16q0-205.5,0-411c0-3.11.17-6.22.25-9.33Z" style="fill:#222121"/><path d="M357.47,135c-3,121.53-.51,243.08-1.33,364.62,0,2.13-.14,4.27-.22,6.4h-.72c-.08-2.13-.22-4.27-.22-6.4q0-144.7,0-289.4c0-3.46.47-7-1.05-10.33l-.2-5.54,1-6.4c.82-18.53-1.35-37.15,1.57-55.62Z" style="fill:#242423"/><path d="M355.21,506.05h.72q0,33.25,0,66.49a1.48,1.48,0,0,1-.65-.27,1,1,0,0,0-.44-.92c0-18.19,0-36.38-.1-54.57,0-1.66,1.69-4.58-2.07-4.84l-2.54.07-10.25,0c-1.26-.77-1.28-1.58-.08-2.43l10.43,0,2.3.15,1.31.05C355.85,509.05,354.49,507.17,355.21,506.05Z" style="fill:#292928"/><path d="M366.73,118.74a5,5,0,0,1-.1.83c-1.55-.06-3.48,1.42-4.43-1.09-1.3-.47-1.23-1.71-1.55-2.73,0-16,0-32-.06-48,0-1.81.85-3.86-.88-5.44q-.52,0-1,0l1-7.07c3.42,1.12,2.35,4,2.36,6.34.07,16.6,0,33.21.07,49.81,0,2.31-.84,5.25,2.82,5.92Z" style="fill:#363534"/><path d="M364.32,572.61a1,1,0,0,1,.93-.08c0,9.39.68,18.8-.9,28.14a1.11,1.11,0,0,1-1,.08C362.86,591.34,362.6,581.94,364.32,572.61Z" style="fill:#646465"/><path d="M362.92,661.29c.09,5.89.6,11.81-.88,17.62a4,4,0,0,1-1,.05,63.84,63.84,0,0,1,1-17.59l.45-.14Z" style="fill:#636363"/><path d="M351.46,700c-2-5.87-1.07-11.74,0-17.6H352l.52-.06C352.59,688.26,353,694.19,351.46,700Z" style="fill:#646466"/><path d="M352.86,631.1c-.15-5.51-.41-11,.92-16.44l.51-.07h.51a59.89,59.89,0,0,1-.88,16.45A1.92,1.92,0,0,1,352.86,631.1Z" style="fill:#636264"/><path d="M364.15,622.77a93.74,93.74,0,0,1-.84,20.1l-1.11-1.25v-1.32a4.39,4.39,0,0,0,0-5.75c.57-3.89-.72-7.93.93-11.73l.51-.05Z" style="fill:#636364"/><path d="M361.77,697.5a55.79,55.79,0,0,1-.94,16.83c-2.3-2.15-.55-5-1.32-7.43,1.34-3-.59-6.42,1.26-9.33l.49-.13Z" style="fill:#656565"/><path d="M354.86,571.35a1,1,0,0,1,.44.92c-.06,3.22-1.07,6.5.64,9.6-.34,4,.93,8-.82,11.89l-1.1-1.14C353.7,585.51,353.34,578.39,354.86,571.35Z" style="fill:#7b7a7c"/><path d="M366.75,771c2.29-5.31.59-10.89,1-16.32.19-2.3.16-4.61.22-6.92h.86q0,13.51-.09,27c-.71-.26-1.38-1-2.15-.11a2.3,2.3,0,0,1-.89-2.49Z" style="fill:#666566"/><path d="M352.66,665.23c-2.24-5.56-.88-11.13,0-16.7a9.42,9.42,0,0,1,1-.06C353.85,654.09,354,659.71,352.66,665.23Z" style="fill:#626264"/><path d="M354,592.62l1.1,1.14-.32,20.83h-.51l-.51.07Z" style="fill:#232223"/><path d="M364.15,622.77h-.52l-.51.05.27-22.08a1.11,1.11,0,0,0,1-.08Z" style="fill:#232324"/><path d="M362.21,641.63l1.11,1.25-.4,18.41-.47-.07-.45.14Z" style="fill:#242424"/><path d="M360.77,697.56l-.15-11.66L361,679a4,4,0,0,0,1-.05l-.27,18.58-.51-.06Z" style="fill:#252525"/><path d="M353.65,648.47a9.42,9.42,0,0,0-1,.06l.24-17.44a1.92,1.92,0,0,0,1.06-.05Z" style="fill:#222223"/><path d="M368.8,133.42l-2.31,1.22c.3-3.89,1.76-7.65,1.22-11.63a1.85,1.85,0,0,0,1.08.16Q368.79,128.3,368.8,133.42Z" style="fill:#303031"/><path d="M352.51,682.35l-.52.06h-.53c.38-5.48-1.27-11.12,1.21-16.44Z" style="fill:#212022"/><path d="M350.43,716.26c.18-5.48-1.47-11.09,1.1-16.41l-.3,16.4A3.58,3.58,0,0,0,350.43,716.26Z" style="fill:#242426"/><path d="M352.55,743.15c-1.33-1.81-1-3.88-.93-5.91l.57,0h.57c1.37,1.81,1,3.88.93,5.92A4,4,0,0,0,352.55,743.15Z" style="fill:#696868"/><path d="M353.92,754.8c-1.69-1.71-1.19-3.84-1.12-5.89a6.9,6.9,0,0,0,1.08,0c1.5,1.74.58,4,1.29,5.93l-.32.17-.24-.27A.58.58,0,0,1,353.92,754.8Z" style="fill:#656464"/><path d="M357.07,784.1c-1.44-2.63-1-5.47-.92-8.27l1,.07.4-.12c-.13,1.66-.29,3.33.84,4.77L358.3,784Z" style="fill:#2a292b"/><path d="M355,767.66l-1-7h1l1,1.68v5.35Z" style="fill:#414142"/><path d="M364.51,750c1.51,1.76.64,3.9.92,5.85-3.44-.31-1.92-2.86-2.09-4.64Z" style="fill:#7a7a7a"/><path d="M365.63,145.31l-1.18-1.19c.17-1.9-1.23-4.52,2.25-4.89C366.72,141.32,366.85,143.43,365.63,145.31Z" style="fill:#7b7a7c"/><path d="M355,767.66H356l1.14,8.23-1-.07A16.84,16.84,0,0,1,355,767.66Z" style="fill:#2d2c2e"/><path d="M351.46,730.29c-1.3-1.38-1.11-3.06-1-4.74H351l.55,0a5.78,5.78,0,0,1,.83,4.78A1.4,1.4,0,0,1,351.46,730.29Z" style="fill:#616161"/><path d="M357.47,135l-1.15-2.67c-.62-1.79.94-3.06,1.11-4.66h1.18C358.06,130.11,358.81,132.74,357.47,135Z" style="fill:#393a39"/><path d="M366.64,774.7c.77-.94,1.45-.15,2.15.11l.2,4.5C366.48,778.65,366.73,776.58,366.64,774.7Z" style="fill:#1c1d1e"/><path d="M360.65,115.75c.32,1,.26,2.26,1.55,2.73l-2.38,4.82-1-1.46C359.49,119.83,359.24,117.54,360.65,115.75Z" style="fill:#605f5f"/><path d="M355.94,581.87c-1.71-3.1-.7-6.38-.64-9.6a1.5,1.5,0,0,0,.65.27Z" style="fill:#666667"/><path d="M351.59,725.58l-.55,0h-.55c-.12-3.1-.91-6.2-.06-9.3a3.58,3.58,0,0,1,.8,0Z" style="fill:#323234"/><path d="M360.82,718.36c1.24,1.47,1.15,3.22,1,5l-1.17,0C359.72,721.63,358.74,719.94,360.82,718.36Z" style="fill:#666"/><path d="M362.17,728.91a6.8,6.8,0,0,1,.8,5l-1.11,1.21a6.72,6.72,0,0,1-.84-4.93Z" style="fill:#6d6d6d"/><path d="M363.35,739.46c1.21,1.49,1.13,3.19.84,4.93L363,745.61a6.08,6.08,0,0,1-.84-4.94Z" style="fill:gray"/><path d="M357.07,784.1l1.23-.09c.16,2,1.86,3.67,1.17,5.83h-1C357.28,788.11,357.16,786.11,357.07,784.1Z" style="fill:#212123"/><path d="M358.81,121.84l1,1.46c0,1.58.08,3.17-1.2,4.39h-1.18Z" style="fill:#5b5b5b"/><path d="M351.46,730.29a1.4,1.4,0,0,0,1,.07l.34,6.9h-.57l-.57,0Z" style="fill:#272828"/><path d="M363.35,739.46l-1.2,1.21-.29-5.57,1.11-1.21Z" style="fill:#303030"/><path d="M363,745.61l1.21-1.22.31,5.57-1.17,1.21Z" style="fill:#303030"/><path d="M358.51,789.84h1c.49,1.52,2,2.79,1.16,4.64l-.33-.06-.34,0A5.35,5.35,0,0,1,358.51,789.84Z" style="fill:#202022"/><path d="M356,762.32l-1-1.68-.38-5.87.24.27.32-.17C357,757.2,355.94,759.82,356,762.32Z" style="fill:#f4f3f3"/><path d="M362.17,728.91,361,730.18l-.38-6.86,1.17,0Z" style="fill:#363636"/><path d="M365.61,762.85a4.36,4.36,0,0,1,.8,3.78l-1.1,1.22a3.93,3.93,0,0,1-.79-3.83Z" style="fill:#6f6e6f"/><path d="M362.19,634.56a4.39,4.39,0,0,1,0,5.75Z" style="fill:#636363"/><path d="M365.61,762.85,364.53,764c.37-1.89-1.64-4.17,1-5.69Z" style="fill:#282827"/><path d="M365.32,767.85l1.1-1.22.34,4.41-1,1.17Z" style="fill:#343335"/><path d="M358.36,780.54c-1.13-1.44-1-3.11-.84-4.77C358.46,777.25,359.66,778.68,358.36,780.54Z" style="fill:#f4f3f3"/><path d="M353.89,749a6.9,6.9,0,0,1-1.08,0l-.25-5.76a4,4,0,0,1,1.13,0Z" style="fill:#292929"/><path d="M208.93,732.46l.12,4.68c-3,0-2.18,2.14-2.17,3.83l-.29,8c-1.1,1.66-2.13,3.32.12,4.89l-.08,3.37c-3.29,2.92-2,6.87-2.36,10.45l-2.08,5.42c0-1.36-.1-2.72-.1-4.08q0-317.08,0-634.17l2.2,3.36.27,5.75c.06,4.08.18,8.16.18,12.23q0,204.6,0,409.19c0,1.75,0,3.5,0,5.25,0,1.22.57,1.75,1.75,1.71l.13,2.7c-1.72.34-1.21,1.75-1.2,2.77.07,8.74.21,17.49.33,26.23l0,5.83c.32,3.17-1.15,6.57,1.21,9.48-.17,5.11-1.34,10.27,1,15.23l-.07-.14a35,35,0,0,0,0,16.43l.22,18.61c.08,3.67,0,7.37.31,11,.17,1.74-1.64,4.38,1.69,5.14l.1,1.52c-2.19,5.84-1.6,11.67.06,17.5a2.64,2.64,0,0,1,0,.92c-2.43,5-.05,10.34-.85,15.46C209.36,724.86,207.43,728.6,208.93,732.46Z" style="fill:#e6e4e4"/><path d="M213.86,570.25c-.06-22.18-.17-44.37-.18-66.55q0-176,0-352.08c0-4.47,0-8.95,0-13.42l.51.06.51,0,.28,53.45c-.19,1.5-.48,3,1.35,3.81C215.84,206.34,215,217.19,215,228q-.16,137.74,0,275.48c0,2.2-1.72,6.32,1.62,6.36,3.51,0,1.6-4.07,1.61-6.18q.17-139.78.1-279.57c0-2.13.15-4.27.22-6.4.64.49,1.11,1.33,2.13,1l129.58-.09-.27.13.06.29.15,1.15c-41.24,0-82.47,0-123.71-.28-5.53,0-7,1.14-7,6.89q.31,141.23.14,282.45c3.83,3.23,8.4.66,12.52,1.6a2.32,2.32,0,0,1,0,.76l-1.11.35a36.42,36.42,0,0,1-5.21-.14c-5-.83-6.5,1-6.33,6.16.41,12.73.08,25.49,0,38.24a1.38,1.38,0,0,0-1-.07c-.07-13.37-.1-26.74-.28-40.11,0-1.51,1.43-4.25-2.12-4.11-2.3,1.5-1.34,3.85-1.35,5.83-.08,15.44,0,30.88-.08,46.33C214.72,566.17,215.4,568.39,213.86,570.25Z" style="fill:#232222"/><path d="M202.08,134.84q0,317.08,0,634.17c0,1.36.07,2.72.1,4.08l1.12,3-1.25,4.43h-.58l-.58,0c0-1-.08-1.94-.08-2.92q0-321.73,0-643.45c0-2.91-.18-5.82-.27-8.74l1.65-.15,1.12,5.74C202.66,132.2,201.62,133.28,202.08,134.84Z" style="fill:#252525"/><path d="M206.51,572.34c-1.18,0-1.77-.49-1.75-1.71,0-1.75,0-3.5,0-5.25q0-204.6,0-409.19c0-4.08-.12-8.16-.18-12.23a7.43,7.43,0,0,1,1,.06c1.15,1.43.92,3.1.85,4.75-1.58,1.87-.89,4.11-.89,6.18q-.05,204,0,408c0,2.06-.7,4.31.92,6.16Z" style="fill:#666"/><path d="M206.47,569.08c-1.63-1.85-.92-4.1-.92-6.16q-.05-204,0-408c0-2.07-.69-4.31.89-6.18.08,1.55.22,3.1.22,4.65q0,205.51,0,411C206.66,566,206.54,567.53,206.47,569.08Z" style="fill:#636363"/><path d="M213.86,570.25c1.55-1.86.87-4.08.87-6.13.06-15.44,0-30.88.08-46.33,0-2-1-4.32,1.35-5.83-.77,27.9-.25,55.8.09,83.71-1.3,4.28,1,8.88-1.21,13.07Z" style="fill:#383939"/><path d="M217.43,650.87c-1.75-5.86-2.22-11.74-.21-17.65l-.1.07c1.82,5.82.9,11.78.91,17.69A.37.37,0,0,1,217.43,650.87Z" style="fill:#69696a"/><path d="M210,685.64c-3.33-.76-1.52-3.41-1.69-5.14-.35-3.65-.24-7.34-.31-11a7.31,7.31,0,0,1,1.06.05C210.6,674.83,209.83,680.26,210,685.64Z" style="fill:#646464"/><path d="M209.34,721c.8-5.13-1.58-10.43.85-15.46,1,5.13,2.2,10.25,0,15.37A.69.69,0,0,1,209.34,721Z" style="fill:#656565"/><path d="M205.76,604c-.12-8.74-.26-17.49-.33-26.23,0-1-.51-2.42,1.2-2.77l.15,27.85a.94.94,0,0,0-.48.89A4.23,4.23,0,0,1,205.76,604Z" style="fill:#232323"/><path d="M218.52,723.39l.06-15.28,1.82,3.45c-.45,4.35,1.25,8.8-.69,13.07Z" style="fill:#7d7d7d"/><path d="M215,608.74c2.19-4.19-.08-8.8,1.21-13.07a105.59,105.59,0,0,1,.7,20.24,1.27,1.27,0,0,1-1-.06C214.45,613.64,215.53,611.09,215,608.74Z" style="fill:#626261"/><path d="M218.23,683.59c-1.47-3-.68-6.28-.87-9.43,1.69-2.23.7-4.73.7-7.12l.4.17a57.3,57.3,0,0,1,.89,16.44A6.24,6.24,0,0,1,218.23,683.59Z" style="fill:#707070"/><path d="M206.3,603.78a.94.94,0,0,1,.48-.89c1.75,5.46.87,11.05.79,16.6a.54.54,0,0,1-.64-.14c-2.36-2.91-.9-6.31-1.21-9.48C207.27,608,206.46,605.85,206.3,603.78Z" style="fill:#7e7d7d"/><path d="M207.81,650.87a35,35,0,0,1,0-16.43c1.77,3.42.72,7.1,1,10.66-1.55,1.85-.8,3.95-.62,6Z" style="fill:#6f6e70"/><path d="M209.09,669.53a7.31,7.31,0,0,0-1.06-.05l-.22-18.61.37.2.61-.13Z" style="fill:#262526"/><path d="M218.23,683.59a6.25,6.25,0,0,0,1.12.06l.1,17.39.11-.06C217,695.34,218.74,689.38,218.23,683.59Z" style="fill:#242424"/><path d="M216,615.85a1.27,1.27,0,0,0,1,.06l.16,17.38.1-.07C214.7,627.58,216.33,621.64,216,615.85Z" style="fill:#232323"/><path d="M211.59,787.51c-.1-2.78-1.2-5.65.78-8.23l1.55.13c-.19,2.75.42,5.63-1.33,8.13Z" style="fill:#242424"/><path d="M218.52,723.39l1.2,1.23c-.14,4.26-.12,8.54-1.42,12.67h-.94l-.19-4.9c1.59-2.08,1-4.47,1-6.77Z" style="fill:#353535"/><path d="M210.19,704.66c-1.66-5.83-2.25-11.66-.06-17.5Z" style="fill:#232323"/><path d="M217.43,650.87a.37.37,0,0,0,.59.12l.43,16.22-.4-.17a1.24,1.24,0,0,1-.72.12C217.32,661.73,216.52,656.3,217.43,650.87Z" style="fill:#232323"/><path d="M220.41,711.55l-1.82-3.45a9.4,9.4,0,0,1,1-7.13l-.11.06C221.26,704.41,220.17,708,220.41,711.55Z" style="fill:#6c6c6c"/><path d="M206.93,619.36a.54.54,0,0,0,.64.14l.31,15.09C205.59,629.63,206.77,624.46,206.93,619.36Z" style="fill:#222"/><path d="M204.28,767.66c.36-3.58-.93-7.53,2.36-10.45l-1.29,10.42Z" style="fill:#3d3e3e"/><path d="M213.92,779.4l-1.55-.13.32-3c1.17-1.57,1-3.36.78-5.14a4,4,0,0,0,.38-1.05L215,771.3C214.78,774,215.28,776.83,213.92,779.4Z" style="fill:#313131"/><path d="M209.34,721a.69.69,0,0,0,.8-.1c.68,4-.4,7.72-1.2,11.52C207.43,728.6,209.36,724.86,209.34,721Z" style="fill:#333"/><path d="M212.5,129.64c2,2.54,1.62,5.69,2.16,8.6l-.51,0-.51-.06C212.24,135.48,211.37,132.69,212.5,129.64Z" style="fill:#575757"/><path d="M216.17,747.91a9,9,0,0,1,.84-6.11l1.11,1.21c.13,2.08.55,4.2-.78,6.1Z" style="fill:#7b7a7a"/><path d="M209.9,124.17l-.54-3.55a.93.93,0,0,1,.69,0c2,2.4,2,5.37,2.47,8.23C210.27,128.1,210.53,125.88,209.9,124.17Z" style="fill:#3a3b3a"/><path d="M215,760.7c-.11-2-.45-4.12.94-5.92l.52-.09.53,0c-.07,2,.51,4.11-.86,5.94Q215.55,760.67,215,760.7Z" style="fill:#686767"/><path d="M202.08,134.84c-.46-1.56.57-2.64,1.22-3.84,1.48,2.18,1.58,4.76,2,7.23q-.53,0-1.06,0Z" style="fill:#5a5a5a"/><path d="M204.28,767.66l1.07,0c-.17,2.93-.4,5.84-2,8.41l-1.12-3Z" style="fill:#565656"/><path d="M215,771.3l-1.13-1.18a6,6,0,0,1,.84-4.93l1.14,1.19A5.64,5.64,0,0,1,215,771.3Z" style="fill:#7b7a7a"/><path d="M211.59,787.51l1,0c.34,2.5-1.13,4.6-1.56,6.93l-.9-2.36.64-3.24Z" style="fill:#262626"/><path d="M206.89,741c0-1.69-.79-3.82,2.17-3.83.08,2.12.19,4.24-1.06,6.12Z" style="fill:#858585"/><path d="M206.72,753.85c-2.25-1.58-1.23-3.23-.12-4.89l.52-.09.52,0A7.23,7.23,0,0,1,206.72,753.85Z" style="fill:#6d6d6d"/><path d="M207.64,748.89l-.52,0-.52.09.29-8,1.11,2.29Z" style="fill:#323232"/><path d="M217.34,667.16a1.24,1.24,0,0,0,.72-.12c0,2.4,1,4.89-.7,7.12Z" style="fill:#626262"/><path d="M217,754.73l-.53,0-.52.09.24-6.87,1.17,1.19Z" style="fill:#262625"/><path d="M208.79,650.95l-.61.13c-.17-2-.92-4.12.62-6Z" style="fill:#626263"/><path d="M218.11,743,217,741.8l.35-4.51h.94Z" style="fill:#303030"/><path d="M204.28,138.19q.53,0,1.06,0l.24,5.78a7.41,7.41,0,0,0-1-.06Z" style="fill:#303030"/><path d="M215.84,766.39l-1.14-1.19.28-4.49q.57,0,1.14,0Z" style="fill:#252525"/><path d="M206.61,791q0,.55.11,1.09l-1,1-.15-2A1,1,0,0,1,206.61,791Z" style="fill:#2a2a2a"/><path d="M335.15,655.61c-3.58-.07-1.91-2.78-1.92-4.27q-.31-66.7-.44-133.4c0-13.4,0-26.8,0-40.2,0-2-.92-4.32,1.12-6,1.52,1.89.77,4.12.77,6.17q.07,82.17.06,164.33C334.79,646.71,335,651.16,335.15,655.61Z" style="fill:#636363"/><path d="M338.74,468.53c1.95,2.4,1,5.23,1,7.85.13,11.05.07,22.1.08,33.16-1.2.85-1.18,1.66.08,2.43l-.37,1.14c-1.36,1.48-.89,3.31-.89,5q0,51,0,102c0,1.7-.47,3.53.92,5l0,9.45c-1.63,2.21-.17,4.9-1.12,7.22-1.37-5.56-.53-11.21-.54-16.8q-.16-74.72-.08-149.43c0-1.94-.07-3.88-.11-5.82Z" style="fill:#626362"/><path d="M232.37,471.09a8.22,8.22,0,0,1-.83-6.11l2.07.26q-.14,79.29-.32,158.58c0,2.47.72,5.05-.75,7.39l-.4-5.79q0-56.89,0-113.77a2.32,2.32,0,0,0,0-.76c0-1.26.32-2.57-.8-3.57l0-1.32c1.56-1.62.9-3.64.91-5.5C232.34,490.69,232.34,480.89,232.37,471.09Z" style="fill:#78787a"/><path d="M238,468.62q0,78.21,0,156.41c0,2.1.52,4.29-.64,6.29-.12-2.52-.35-5-.36-7.56q0-71.81-.06-143.61c0-2.25.82-4.69-.9-6.74-.08-1.7-.91-3.59,1.23-4.7l.38-.1Z" style="fill:#777678"/><path d="M236,473.41c1.72,2,.9,4.49.9,6.74Q237,552,237,623.76c0,2.52.23,5,.36,7.56l-.26-.29a1.34,1.34,0,0,1-1,.07c-.07-21.91-.2-43.83-.2-65.74Q235.87,519.38,236,473.41Z" style="fill:#636364"/><path d="M340.95,675.07a2.05,2.05,0,0,1,0-.77l.22-3.6,1.23-.08a1.09,1.09,0,0,1,.78.27c.16,3.26-.27,6.69,2.5,9.24l-.14,0a2.64,2.64,0,0,0,.36,1c-.57,1.57-2.57,3-.38,4.81l1.31,9.29c-1.33,5-1.22,10.17-1,15.3l-.27,3.25c-2-.46-.69-2.24-1.29-3.26.2-2.05.26-4.08-.9-5.93,0-3.94.23-7.9-1.31-11.67l-.13-6.93-.09-4.75A8.28,8.28,0,0,0,340.95,675.07Z" style="fill:#e7e5e5"/><path d="M241.8,456.07c8.31-.12,16.62-.32,24.93-.36,19-.1,38-.19,57-.1,2.2,0,5.26-1,6.37,2.39a28.41,28.41,0,0,0-5.11-.94q-39.92-.08-79.83,0a19.8,19.8,0,0,0-3.41.59Z" style="fill:#232222"/><path d="M325.77,462.92l-81.7-.09c.27-1.33,1.33-1.15,2.26-1.15l79.38.2A1.89,1.89,0,0,0,325.77,462.92Z" style="fill:#242423"/><path d="M232.15,625.42l.4,5.79c-.43,9.31.7,18.68-1.07,27.94L230,659c-1.45-1.28-1.09-3.07-1.33-4.69l2.7-29.11A1.7,1.7,0,0,1,232.15,625.42Z" style="fill:#333"/><path d="M225.36,724.75a29.73,29.73,0,0,1-1.23-11.82l1.24-2.4.2-2.48,1.93,1.16C226.77,714.39,227.53,719.77,225.36,724.75Z" style="fill:#444443"/><path d="M338.43,641.81c1-2.32-.51-5,1.12-7.22L342,655.47l-3.24-1.15Z" style="fill:#343335"/><path d="M231,673c-.57,6-.42,12-2,17.83l-1-3.72,1-16.37a2.12,2.12,0,0,0,.79-.33Z" style="fill:#424243"/><path d="M338.76,654.33l3.24,1.15c0,2.49,2.77,4.89.22,7.45a2,2,0,0,0-1.06-.08c-.13-.36-.15-.82-.39-1.06-.6-.59-.86-.17-.84.45,0,1.33.12,2.66.19,4l-.42-.17C338.38,662.22,338.49,658.28,338.76,654.33Z" style="fill:#747375"/><path d="M236.81,655.46c.06,4.34.6,8.71-.9,12.94a2.06,2.06,0,0,1-1,.06c-.27-4.36-.41-8.7.94-12.94l.48-.12Z" style="fill:#616163"/><path d="M236.81,655.46l-.49-.05-.48.12.24-24.43a1.34,1.34,0,0,0,1-.07Z" style="fill:#242324"/><path d="M346.65,717.34a9.07,9.07,0,0,1,1.15,6h-3.24a12.52,12.52,0,0,1-1.06-7.1l2.12.15Z" style="fill:#616063"/><path d="M342.07,692.9c1.54,3.77,1.29,7.73,1.31,11.67q-.54,0-1.09,0a36.79,36.79,0,0,1-1.07-11.64l.42,0Z" style="fill:#39393b"/><path d="M228,687.12l1,3.72c-.3,3.52.5,7.16-1.18,10.53l-1-1.46Z" style="fill:#222223"/><path d="M335.06,678.92a10.7,10.7,0,0,1,0-9.45c1.44,3,1.1,6.28,1,9.49A6.33,6.33,0,0,1,335.06,678.92Z" style="fill:#616162"/><path d="M235.69,681.16c.22,3.24.59,6.49-.85,9.58l-1.11-1.23c.27-2.77-.6-5.66.89-8.29l.53-.06Z" style="fill:#676769"/><path d="M336.24,695.26a8.72,8.72,0,0,1,0-8.28c1.55,2.62,1.17,5.48,1,8.32Z" style="fill:#616062"/><path d="M341.23,753.64c-1.88-2.1-1.41-4.62-1.25-7.08a5.11,5.11,0,0,1,1.05.06c1.81,2.22.46,4.77.75,7.15A.37.37,0,0,1,341.23,753.64Z" style="fill:#686868"/><path d="M231,673l-1.18-2.6q0-2.79,0-5.58L230,659l1.46.11Z" style="fill:#313132"/><path d="M353.85,783.84c1.64,3,1,6.44,2.08,9.54l-1.86,1.11C354.7,790.92,351.62,787.43,353.85,783.84Z" style="fill:#515051"/><path d="M339.74,738.47c-.79-2.47-2.09-4.94.06-7.38,1.35,2.34,1.21,4.88,1,7.42Q340.26,738.52,339.74,738.47Z" style="fill:#5c5d5d"/><path d="M216.1,794.5c1-3.45.59-7.19,2.25-10.5l.49,0h.49c-1,3.46-.33,7.25-2.14,10.54Q216.64,794.53,216.1,794.5Z" style="fill:#4a4949"/><path d="M234.5,698.67c.24,2.43.56,4.88-.88,7.11q-.55,0-1.1.05c-.17-2.43-.48-4.88.95-7.1l.51-.1Z" style="fill:#6b6b6b"/><path d="M232.11,727.84c.3,2.58.62,5.16-.91,7.51-2.19-2.52-1.15-5,.17-7.4l.36-.15Z" style="fill:#6f6e6f"/><path d="M342.4,768.82c-1.93-2.08-1.33-4.62-1.27-7.06l1.08,0c1.26,2.28,1.1,4.7.73,7.14l-.31.1Z" style="fill:#636363"/><path d="M235.69,681.16h-.53l-.53.06.28-12.75a2.06,2.06,0,0,0,1-.06Z" style="fill:#242325"/><path d="M226.85,699.92l1,1.46-.34,7.84-1.93-1.16C224.7,705.14,227.25,702.76,226.85,699.92Z" style="fill:#222"/><path d="M231.06,743c.28,2.49.43,5-.85,7.27L229.06,748a8.06,8.06,0,0,1,.82-6.12Z" style="fill:#828282"/><path d="M337.4,709.28c-1.73-2.38-1.06-4.74,0-7.1,1.52,2.23,1.22,4.71,1,7.18A2.57,2.57,0,0,1,337.4,709.28Z" style="fill:#6a696b"/><path d="M335.17,669.63c-1.86-4.29-2.28-8.59-.05-12.9Z" style="fill:#232323"/><path d="M344.41,783.85c-3.87-.8-1.75-3.74-2.08-5.81l1.12-1.19C344.85,779,344.29,781.49,344.41,783.85Z" style="fill:#737373"/><path d="M228,785.11c-.7,2.34.07,5-1.47,7.15-1.19-2.35-1.77-4.72-.12-7.12l.57,0,.56.08.2-.22Z" style="fill:#6b6b6a"/><path d="M226.35,800.27c-.14,2.94-.26,5.88-2,8.44l-1-1.21c1-2.3,0-5.1,1.82-7.19Z" style="fill:#717070"/><path d="M233.38,713.88c.11,2.42.44,4.86-.92,7.09a2.33,2.33,0,0,1-1.08,0l.85-7.11Q232.81,713.92,233.38,713.88Z" style="fill:#656565"/><path d="M348.11,729.08c1.14,1.85,1.1,3.88.87,5.93a8.78,8.78,0,0,0-1.07,0c-1.31-1.79-.91-3.87-1-5.87Z" style="fill:#616161"/><path d="M223.13,732.69c.41-2.12-1.78-5.22,2.24-6-.06,2,.45,4.16-1,5.94Z" style="fill:#7b7a7a"/><path d="M342.3,704.54q.54,0,1.09,0c1.16,1.84,1.1,3.88.9,5.93l-1.07-.06C342.07,708.61,342.19,706.58,342.3,704.54Z" style="fill:#636264"/><path d="M344.34,798.05a8.51,8.51,0,0,1-.88-5.93q.53,0,1.05,0c1.11,1.84,1.08,3.86,1,5.9Q344.91,798.07,344.34,798.05Z" style="fill:#5e5e5e"/><path d="M222,744.39c-.2-2.09-.59-4.21.91-6.05l1.1,1.13a8.64,8.64,0,0,1-.82,6.11Z" style="fill:#7e7e7e"/><path d="M349.21,740.78c1.69,1.79.55,4,.8,6a.57.57,0,0,1-.67-.11c-1.75-1.7-1.25-3.84-1.19-5.9Q348.69,740.72,349.21,740.78Z" style="fill:#666"/><path d="M220.83,756c-.06-2-.32-4.09,1-5.9a8.7,8.7,0,0,0,1.08,0c.14,2,.42,4.11-.9,5.93Z" style="fill:#646464"/><path d="M346.55,811.23c-1.31-2.3-1.56-4.89-2-7.43l1.17-1.27,2,7.25Z" style="fill:#6c6b6b"/><path d="M340.95,675.07a8.28,8.28,0,0,1,.91,6.15l-1,0C340,679.2,339,677.11,340.95,675.07Z" style="fill:#656566"/><path d="M229.83,757.07c.15,2,.51,4.12-.89,5.93a3,3,0,0,1-1,.06c-.17-2-.58-4.12.82-6l.55-.08Z" style="fill:#676868"/><path d="M228.69,771.09a13.58,13.58,0,0,1-.86,7.24L226.74,776c-.24-1.7-.3-3.36.83-4.82Z" style="fill:#6c6c6c"/><path d="M233.62,465.24l-2.07-.26c1.4-1.41,1.56-4,4.07-4.37A5.89,5.89,0,0,1,233.62,465.24Z" style="fill:#282828"/><path d="M350.4,751.19c1.18,1.9,1,4,.8,6.06a1,1,0,0,1-.79-.11c-1.58-1.33-1.24-3.07-1-4.79Z" style="fill:#666"/><path d="M338.74,468.53l-1,1.22c.18-2.5-2-4.54-1.4-7.13C338.95,463.83,338.69,466.25,338.74,468.53Z" style="fill:#333"/><path d="M338.68,723.3a7.45,7.45,0,0,1-1-5.9l1.26,0c1.73,1.82.5,4,.67,6A1.63,1.63,0,0,1,338.68,723.3Z" style="fill:#4b4b4c"/><path d="M352.39,767.76l.34,6.88a4.34,4.34,0,0,0-1.08,0c0-2-2.34-3.51-1-5.72Z" style="fill:#2d2d2d"/><path d="M238,468.62h-.4l-.38.1c0-3.09,2.15-4.58,4.51-5.88C242,465.75,239.26,466.69,238,468.62Z" style="fill:#636262"/><path d="M348.11,729.08l-1.2,0c.87-2.6-2.52-3.48-2.35-5.8h3.24Z" style="fill:#444445"/><path d="M352.39,767.76l-1.76,1.11-.11-6a3.8,3.8,0,0,1,1,.06A6,6,0,0,1,352.39,767.76Z" style="fill:#606060"/><path d="M218.57,778.31c-.18-1.69-.5-3.4.82-4.83l1.19,0c.26,2.1.49,4.2-.88,6.07Z" style="fill:#7c7b7b"/><path d="M219.63,767.72c-.12-2.08-.48-4.2.87-6.08l1.13,1.22c.31,1.71.51,3.39-.83,4.81Z" style="fill:#767575"/><path d="M234.5,698.67l-.52,0-.51.1.26-9.22,1.11,1.23Z" style="fill:#282828"/><path d="M351.66,774.6a4.34,4.34,0,0,1,1.08,0c.93,1.7,1.94,3.39-.1,5C351.25,778.19,351.47,776.39,351.66,774.6Z" style="fill:#656666"/><path d="M226.74,776l1.09,2.38-.32,6.86-.56-.08-.57,0Z" style="fill:#292929"/><path d="M343.45,776.84,342.33,778c-.06-3.07-.87-6.15.06-9.22l.24.22.31-.1Z" style="fill:#2c2c2c"/><path d="M216.1,794.5q.54,0,1.09,0a8.56,8.56,0,0,1-2.19,5.87h-1.2A13.24,13.24,0,0,1,216.1,794.5Z" style="fill:#656464"/><path d="M229.83,757.07l-.56,0-.55.08.33-9.15,1.15,2.34Z" style="fill:#303030"/><path d="M338.89,717.36l-1.26,0-.24-8.12a2.56,2.56,0,0,0,1,.08Z" style="fill:#242425"/><path d="M343.22,710.45l1.07.06c.6,1-.73,2.8,1.29,3.26l0,2.58-2.12-.15Z" style="fill:#232324"/><path d="M341.2,670.7l-.22,3.6c-2.34-2.45-.89-5.5-1.3-8.26l.42.17a1.55,1.55,0,0,1,.69-.12Z" style="fill:#242325"/><path d="M226.35,800.27l-1.2,0c.55-2.72-1-5.82,1.41-8.21Z" style="fill:#2d2d2d"/><path d="M228.69,771.09l-1.12,0,.33-8.07a3,3,0,0,0,1-.06Z" style="fill:#2e2e2e"/><path d="M335.06,678.92a6.33,6.33,0,0,0,1.07,0l.22,8.19C334,684.7,335.38,681.67,335.06,678.92Z" style="fill:#222123"/><path d="M223.33,807.51l1,1.21a8.58,8.58,0,0,1-1.46,5.3C221.21,811.73,223.43,809.7,223.33,807.51Z" style="fill:#3d3e3d"/><path d="M233.38,713.88q-.57,0-1.14,0l.29-8.08q.55,0,1.1-.05Z" style="fill:#272727"/><path d="M346.55,811.23l1.19-1.46,1.45,5.72-1.32.06C346.34,814.45,346.77,812.74,346.55,811.23Z" style="fill:#565655"/><path d="M339.74,738.47q.52,0,1.05,0l.26,8.1a5.1,5.1,0,0,0-1.05-.06Z" style="fill:#262626"/><path d="M342.21,761.8l-1.08,0c-.05-2.71-.82-5.42.1-8.12a.37.37,0,0,0,.56.13Z" style="fill:#262626"/><path d="M241.8,456.07l-.1,1.6c-.82,1.18-2.14,1.32-3.38,1.62C238.17,456.8,240.12,456.58,241.8,456.07Z" style="fill:#686767"/><path d="M325.77,462.92a1.89,1.89,0,0,1-.06-1c1.7.47,4.62-.37,3.4,3.2Z" style="fill:#60605f"/><path d="M224,739.47l-1.1-1.13.25-5.65,1.22,0Z" style="fill:#242424"/><path d="M336.24,695.26l1.07,0,.19,7C335,700.34,336.67,697.62,336.24,695.26Z" style="fill:#232324"/><path d="M231.06,743l-1.19-1.19c.48-1.94-.91-4.3,1.35-5.83Z" style="fill:#232323"/><path d="M344.52,792.16q-.53,0-1.05,0c.33-2.31-1.63-4.95,1-6.93Z" style="fill:#242424"/><path d="M354.06,794.49l1.86-1.11,1.22,4.66q-.49,0-1,0C355.38,796.89,354.11,796.05,354.06,794.49Z" style="fill:#4d4d4e"/><path d="M340.86,681.27l1,0,.09,4.75a6.1,6.1,0,0,1-1.1,0C339.27,684.38,341.33,682.83,340.86,681.27Z" style="fill:#676668"/><path d="M221.64,762.86l-1.13-1.22.32-5.62,1.13,0Z" style="fill:#343434"/><path d="M231.38,721a2.33,2.33,0,0,0,1.08,0l-.35,6.87-.38,0-.36.15Q231.38,724.48,231.38,721Z" style="fill:#252525"/><path d="M340.85,685.93a6.1,6.1,0,0,0,1.1,0l.13,6.93-.42,0-.42,0Z" style="fill:#303031"/><path d="M338.68,723.3a1.63,1.63,0,0,0,.89,0l.27,7.08C337.43,728.36,338.87,725.69,338.68,723.3Z" style="fill:#222122"/><path d="M350.4,751.19l-1,1.16q0-2.87,0-5.73a.57.57,0,0,0,.67.11Z" style="fill:#2a2a2a"/><path d="M219.63,767.72l1.17-.05-.23,5.76-1.19,0Z" style="fill:#242424"/><path d="M349.21,740.78q-.52-.05-1.05-.06l-.25-5.75a8.81,8.81,0,0,1,1.07,0Z" style="fill:#252525"/><path d="M345.77,802.53l-1.17,1.27-.25-5.74q.57,0,1.13,0Z" style="fill:#363636"/><path d="M218.57,778.31l1.14,1.18-.37,4.48h-.49l-.49,0Z" style="fill:#2e2f2f"/><path d="M351.49,763a3.8,3.8,0,0,0-1-.06l-.11-5.77a1,1,0,0,0,.79.11Z" style="fill:#262626"/><path d="M222.87,750.08a8.7,8.7,0,0,1-1.08,0l.18-5.73,1.18,1.19Z" style="fill:#232323"/><path d="M368.88,747.79H368V635.69h.84Q368.87,691.74,368.88,747.79Z" style="fill:#626262"/><path d="M368.86,635.7H368q0-33.29,0-66.58h.8Q368.84,602.4,368.86,635.7Z" style="fill:#666667"/><path d="M200.54,125.4c.1,2.91.27,5.82.27,8.74q0,321.73,0,643.45c0,1,.05,1.94.08,2.92h-1.29q0-317.55.05-635.1c0-6.61.11-13.22.17-19.84A1.23,1.23,0,0,0,200.54,125.4Z" style="fill:#c6c5c6"/><path d="M337.4,33.88a1.37,1.37,0,0,1,0-.68c1.35-1.21,2.59-2.62,4.68-2.38-.16,3.52-.4,7,1.17,10.36l0,2.58c-3.68,3.62-2.94,8.06-2.34,12.48a10.8,10.8,0,0,1-1.12,6.06c-2.17,3.13-1.77,6.81-2.22,10.31l-.3,1.17-2-1.05c1.57-3,1-6.21.81-9.38l.27-8.08c1.27-2.25,1.14-4.67.9-7.1l.22-8.07C338,38,339.66,35.93,337.4,33.88Z" style="fill:#ecebeb"/><path d="M232.34,27.27l105.12,0c-1.5,1.84-3.59,1.13-5.43,1.13q-47.1.06-94.2,0C236,28.36,233.9,28.95,232.34,27.27Z" style="fill:#636363"/><path d="M233.75,29.66l-.17,10.41a1.76,1.76,0,0,0-1,0c-1.39-3,1.76-7.21-2.61-9.35l.11,0L230,29.57a.68.68,0,0,0,.64-.07Z" style="fill:#323233"/><path d="M208.88,57.76c0,17.5.09,35,.06,52.5,0,1.16.84,2.82-1.13,3.41,0-16.86,0-33.71.08-50.57C207.9,61.33,206.89,59.22,208.88,57.76Z" style="fill:#c9c8c8"/><path d="M307.52,818.72H263.69v-.46h43.82Z" style="fill:#959595"/><path d="M211.39,61.08c1.43,1.14,1.17,2.8,1.35,4.33l-1.12,1.43-1.25-4.11Z" style="fill:#4c4c4c"/><path d="M205.72,119.92c.05.86-.32,1.18-1.16.92l-.27-1.39Z" style="fill:#8d8d8d"/><path d="M223.39,47.32a2.49,2.49,0,0,1-1.53-2.53c.38-2.33,1.15-4.43,3.4-5.64a1.83,1.83,0,0,0,.18.89c-.08,1.39-.26,2.81,1.1,3.78,1.29,1.68,1.27,3.64,1.15,5.61l.11,5.65-1,2.43-1.47-3.41Z" style="fill:#ecebea"/><path d="M339.79,62.31a10.8,10.8,0,0,0,1.12-6.06l2.34-12.48,0-2.58c.63-2,.57-4.59,3.62-4.79l-.1,4.86c-1.75,2.88-1.37,6.25-2.18,9.35.3,2.35-2.45,4.63-.15,7l-.1,1.35c-3,.82-.94,4.64-3.41,5.79C339.63,64.39,339.78,63.32,339.79,62.31Z" style="fill:#d8d7d7"/><path d="M346.8,41.25l.1-4.86c.83-.95,1.5.14,2.26.16l1.16,0q0,.62,0,1.25a2.57,2.57,0,0,1,0,.86c0,.77.24,1.33,1.15,1.29l.08,1.18-1.53.23c-.71,0-1.28-1.83-2.1-.15A10.44,10.44,0,0,1,346.8,41.25Z" style="fill:#3e3e3f"/><path d="M354.91,46.1c-1.59-1.63-4.91-1.45-4.91-4.72l1.53-.23C353.4,42.29,355.17,43.5,354.91,46.1Z" style="fill:#454545"/><path d="M351.43,40c-.92,0-1.15-.52-1.15-1.28l1.19.3h-.12Q351.41,39.47,351.43,40Z" style="fill:#8e8e90"/><path d="M351.48,37.75l1.19,0L351.36,39h.12l0-1.26Z" style="fill:#646466"/><path d="M227.69,49.42c.12-2,.13-3.92-1.15-5.61,2-1.19,1.39-2.45.11-3.74-.05-2-.65-4.16,1.2-5.79,1.48-.75,2.75-1.62,2.14-3.61,4.37,2.14,1.22,6.38,2.61,9.35-.14,2-.27,4.08.9,5.91l.18,6.89c-.26,2.1-.49,4.2.88,6.06L235,72.66c.12,12.14-.51,24.29.59,36.42-.12,3.33.59,6.13,4.41,7a.92.92,0,0,1,0-.17c0,2.81,2.2,2.95,4.17,3.33l8,.06,71.15.22c1.36,0,2.75.07,3.72-1.17,4.86-1.23,6.43-5.3,8-9.33l.17-2.3,1.07,2.37.08,3.49-1.33,5.81L333.73,121c-1.69-1-3.21-1-4.46.71l-88.72,0a3.15,3.15,0,0,0-4.53-.81,4.33,4.33,0,0,1-.1-1,7.79,7.79,0,0,0-2.28-5.16l-.32-15,0-10.56c-.24-2.74.69-5.6-.85-8.2l-.38-8.08-1-4.69L230,65.71c2.34-2.75-.64-5.38-.18-8.09C229.48,54.79,229.91,51.75,227.69,49.42Z" style="fill:#f7f6f6"/><path d="M228,29.82l.9-.24-.47,1.16A1,1,0,0,1,228,29.82Z" style="fill:#202021"/><path d="M228.44,30.74l.47-1.16H230l.07,1.15Z" style="fill:#a6a6a8"/><path d="M226.65,40.07c1.27,1.29,1.85,2.55-.11,3.74-1.36-1-1.18-2.39-1.1-3.78Z" style="fill:#727171"/><path d="M204.53,120.93l.21.48-.36.38a11.32,11.32,0,0,1-1.16,0l-.5-1.23Z" style="fill:#949494"/><path d="M350.31,37.83q0-.62,0-1.25h1.17q0,.59,0,1.17l0,0Z" style="fill:#606162"/><path d="M350.17,512l2.54-.07c-.13,12.54-.24,25.09-.4,37.63,0,1.87.71,3.88-.8,5.55a2.08,2.08,0,0,1-1,.07v-3.63c1.94-3.65,1-7.6.86-11.37-.27-9,1.25-18.12-.85-27.08A7.53,7.53,0,0,1,350.17,512Z" style="fill:#696969"/><path d="M350.51,555.19a2.08,2.08,0,0,0,1-.07l-.19,46.64a10,10,0,0,0-1,.06Z" style="fill:#232222"/><path d="M350.31,601.81q.5-.05,1-.06c.13,6.28.58,12.57-.91,18.77a6.2,6.2,0,0,1-1.08,0C349.41,614.3,348.85,608,350.31,601.81Z" style="fill:#636363"/><path d="M345.85,710.51c-.21-5.14-.32-10.27,1-15.3l.45-.07.45,0c.16,5.12.5,10.25-.9,15.28A3.21,3.21,0,0,1,345.85,710.51Z" style="fill:#636365"/><path d="M348.91,666c.34,4.78.46,9.54-.85,14.22L347,679c-.22-4.35-.47-8.7.93-12.94l.47-.13Z" style="fill:#636365"/><path d="M350,635.56c-.1,5.11.73,10.27-.82,15.3l-.13.26-.29-.06c.14-2,.88-4.11-.63-6,.37-3.14-1-6.47,1.06-9.42l.39-.17Z" style="fill:#6f6e70"/><path d="M347,679l1,1.21-.3,15-.45,0-.45.07-1.31-9.29c1.63-1.49,2.11-3.06.38-4.81a2.64,2.64,0,0,1-.36-1Z" style="fill:#272728"/><path d="M350,635.56l-.43-.06-.39.17.09-15.11a6.2,6.2,0,0,0,1.08,0Z" style="fill:#232325"/><path d="M348.91,666l-.49-.06-.47.13.22-15.1a3.18,3.18,0,0,1,.63.13l.29.06.13-.26Z" style="fill:#252526"/><path d="M345.85,710.51a3.21,3.21,0,0,0,1-.07l-.21,6.9-1-1,0-2.57Z" style="fill:#202021"/><path d="M354.61,754.78l.38,5.87h-1q0-2.92-.08-5.83A.58.58,0,0,0,354.61,754.78Z" style="fill:#343434"/><path d="M354.94,83.42l0-2.16c1.62-2.2,1.25-5,2.08-7.38l1.29-5.8c.25-2,1.94-3.61,1.36-5.78,1.72,1.57.87,3.62.88,5.44.08,16,.05,32,.06,48-1.41,1.79-1.15,4.08-1.83,6.09l-1.38,5.86c-.18,1.6-1.73,2.87-1.11,4.66-2.92,18.47-.75,37.09-1.57,55.62-1.21-2-.06-4.79-2-6.62l-.37-5.63c.22-1,.26-1.94-.82-2.52l-.06-26.83c1.38-14,1.24-28.1.85-42.16l.31-9.25Z" style="fill:#f7f6f6"/><path d="M353.87,509.71q0-149.66-.06-299.32c0-3.49.06-7,.1-10.48,1.52,3.32,1.05,6.87,1.05,10.33q0,144.7,0,289.4c0,2.13.14,4.27.22,6.4C354.49,507.17,355.85,509.05,353.87,509.71Z" style="fill:#cac9c9"/><path d="M353.71,194.38c-1.68-4.18-1.37-8.69-2.1-13h1.18c1.9,1.84.76,4.58,2,6.62Z" style="fill:#626261"/><path d="M351.69,211.63c1.09,1.54.95,3.32.95,5.06q0,146.48-.07,293l-2.3-.15.2-4.75c1.74-1.57,1-3.65,1-5.49q.06-137.55,0-275.1c0-1.71,1.19-4-1.34-5.09l-.06-.29.27-.13.16-4.73Z" style="fill:#959696"/><path d="M359.71,62.29c.58,2.17-1.1,3.81-1.36,5.78l-1.13,0c-.3-2.14.82-3.92,1.44-5.83Q359.19,62.27,359.71,62.29Z" style="fill:#383838"/><path d="M206.3,603.78c.16,2.06,1,4.19-.58,6.09l0-5.83A4.24,4.24,0,0,0,206.3,603.78Z" style="fill:#666"/><path d="M220.7,206v4.51c-3.92,1.46-1.77,4.69-2.11,7.2-.08,2.13-.22,4.27-.22,6.4q0,139.79-.1,279.57c0,2.11,1.9,6.22-1.61,6.18-3.34,0-1.61-4.16-1.62-6.36Q214.9,365.78,215,228c0-10.85.82-21.69,1.26-32.54,1.53-2.18.91-4.68,1-7.07,1.74-3.32,1.26-7.07,2-10.57l1.39-5.93c0-.27-.06-.55-.08-.82,2.46-.46,4,1.5,6.09,2.2,1.2,1.37,3.4,2,3.2,4.42L230,179c-3.49.37-3.19,2.54-2.34,5a5,5,0,0,1,0,.9c-3.79.74-2.93,4-3.56,6.51l.08-.15a10.92,10.92,0,0,0-2.48,6.48C220.08,200.32,219.06,203,220.7,206Z" style="fill:#f4f3f3"/><path d="M350.1,219.07c2.52,1.13,1.33,3.39,1.34,5.09q.09,137.55,0,275.1c0,1.84.76,3.92-1,5.49-.05-9.13-.15-18.26-.15-27.4q0-128.57-.07-257.14Z" style="fill:#656565"/><path d="M231.39,625.24q-.1-49.62-.2-99.24c0-4.67-.09-9.34-.13-14l1.11-.35q0,56.88,0,113.77A1.71,1.71,0,0,0,231.39,625.24Z" style="fill:#646466"/><path d="M219.56,556.26c1.68,6.18.39,12.51.93,18.75a5.85,5.85,0,0,0,0,6.93l-.11,6a.47.47,0,0,1-.64-.12c-1.77-10.49-1.45-21.05-1.18-31.61A1.38,1.38,0,0,1,219.56,556.26Z" style="fill:#656565"/><path d="M218.59,217.73c.34-2.51-1.81-5.74,2.11-7.2.19,2.73-.87,5.47,0,8.2C219.7,219.06,219.23,218.22,218.59,217.73Z" style="fill:#656665"/><path d="M231.37,507.31c1.12,1,.85,2.31.8,3.57-4.12-.94-8.69,1.63-12.52-1.6,3.07.11,6.14.19,9.21.35C230.56,509.73,231.31,508.92,231.37,507.31Z" style="fill:#545456"/><path d="M217.3,188.43c-.1,2.39.52,4.88-1,7.07-1.83-.78-1.54-2.31-1.35-3.81,1.46-.68.55-2.28,1.25-3.25l.56,0Z" style="fill:#383838"/><path d="M219.59,120.65c2,8.53.41,17.19.94,25.78-2.21,7.54-.16,15.28-1.1,22.88a.57.57,0,0,1,.15.76,8.21,8.21,0,0,1-1-2.62c-.08-15.62-.08-31.25-.1-46.87A8.32,8.32,0,0,0,219.59,120.65Z" style="fill:#7a7a7a"/><path d="M219.59,120.65a8.32,8.32,0,0,1-1.11-.07L218.32,102l.47.15.49-.07Z" style="fill:#252525"/><path d="M217.3,188.43l-.56.05-.56,0c.72-3.52.45-7.23,2.12-10.56l.51,0h.52C218.55,181.36,219,185.11,217.3,188.43Z" style="fill:#505150"/><path d="M219.28,102.07l-.49.07-.47-.15c-1.11-2.48-1.88-5,0-7.43C220.12,96.89,219.49,99.51,219.28,102.07Z" style="fill:#676767"/><path d="M214.85,74.76c1.73,2.17,1.71,4.86,2.2,7.4l-1.27,0C215,79.77,212.8,77.53,214.85,74.76Z" style="fill:#676766"/><path d="M211.63,66.84l1.12-1.43c.73,2.53,2.88,4.89.93,7.74C211.92,71.4,212.32,68.95,211.63,66.84Z" style="fill:#656565"/><path d="M215.77,82.18l1.27,0L218.1,88a4.83,4.83,0,0,1-.93,0C215.75,86.27,216,84.17,215.77,82.18Z" style="fill:#404040"/><path d="M219.33,177.85h-.52l-.51,0c.38-2.16-1.28-5.14,2.42-6Z" style="fill:#303131"/><path d="M217.17,88a4.83,4.83,0,0,0,.93,0l.29,6C216.17,92.34,217.26,90,217.17,88Z" style="fill:#303030"/><path d="M310.43,444.18c-4.06,0-8.13,0-12.19,0-1.73,0-3.86.19-3.84-2.3,0-2,1.95-2.15,3.48-2.16,8.71,0,17.41,0,26.12,0,1.41,0,2.9.3,3,2,.08,2.09-1.54,2.4-3.19,2.4C319.33,444.18,314.88,444.17,310.43,444.18Z" style="fill:#2e2e2e"/><path d="M261.15,444.18c-4.06,0-8.12,0-12.17,0-1.6,0-3.4,0-3.65-1.94s1.53-2.5,3.13-2.5q13.33-.06,26.66,0c1.41,0,2.85.41,2.79,2.19s-1.4,2.17-2.85,2.18C270.42,444.19,265.78,444.17,261.15,444.18Z" style="fill:#2d2d2d"/><path d="M235.06,299.88c1.52-5.09,5.08-7.34,6.81-10.88,1.81,1,1.36,2.37,1.16,3.26-.61,2.76,2.59,6.15-.2,8C241.12,301.36,238.37,298,235.06,299.88Z" style="fill:#626262"/><path d="M287.11,369.22a2.26,2.26,0,0,1,.17.8c-1.42,2.41.34,5.14-.74,7.59a3.17,3.17,0,0,1-4,1.1l.11.08c-1.94-2.82-1.61-5.7-.21-8.6Z" style="fill:#eceaea"/><path d="M324.37,368.41c2.4.32,4.72-2.4,7.17-.2l1.56,3.33-1.63,1.5-2.06-.17c-2.45-2.85-3.39.22-4.85,1.24a3.81,3.81,0,0,1-.85,0C323.48,372.17,323,370.19,324.37,368.41Z" style="fill:#cfcdcd"/><path d="M232.37,471.09c0,9.8,0,19.6-.12,29.4,0,1.85.64,3.88-.91,5.5-.05-10.68-.12-21.37-.13-32.05C231.2,472.89,230.75,471.52,232.37,471.09Z" style="fill:#646466"/><path d="M242.16,380.56c-1.38-2.63-3.62-2.41-4.95-3.7-2-2-.17-4.35.45-5.88.82-2,3,.31,3.5,1,1,1.45,2.69,1.1,3.85,2C242,376,241.92,376.12,242.16,380.56Z" style="fill:#6c6b6b"/><path d="M323.71,374.13a3.81,3.81,0,0,0,.85,0c1.11,1.69,1.51,4.79,4.71,2.41.85,1.55,1.7,1.35,2.55,0a7.18,7.18,0,0,0,1.08-.11L334,378c-6.24,5-6.46,5-10.57-.51Z" style="fill:#e9e8e8"/><path d="M241.66,260.46c-3.17-3.37-.7-7.36-3-10.65-.79-1.15.15-1.69,1.28-1.77s1.69.62,1.69,1.75Q241.66,255.12,241.66,260.46Z" style="fill:#7b7b7b"/><path d="M331.68,331.18c.54,1,1.91,1.9.41,3.17-3.9,1.37-7.14,1.78-6.17-4.13C328.11,329,330,329.65,331.68,331.18Z" style="fill:#d3d2d2"/><path d="M327.51,299.55l-1.44-.11c-.44-2.09-.66-4.14.91-5.91l3.48,0c.49,1.51,1.45,2.93,1,4.64C330.27,299,329.08,299.8,327.51,299.55Z" style="fill:#dfdddd"/><path d="M325.93,330.22c-1,5.9,2.27,5.5,6.17,4.13l-2.54,5.71c-2.28-3.93-8.81-5.42-3.76-11.17Z" style="fill:#5d5d5d"/><path d="M287.43,335.49c2.08,2.17.69,3.84-1.08,5s-4,1.65-4.94-1.38c2.31-.08,5.5,1,4.54-3.41Z" style="fill:#696969"/><path d="M286,335.65c1,4.43-2.23,3.33-4.54,3.41l0-3.46a3.7,3.7,0,0,1,4.66,0Z" style="fill:#e2e1e1"/><path d="M282.58,290c-.05,2.08,2.93.75,3.05,3.22-1.72-.18-3.62,1.36-5-.22-1.06-1.18,0-2.85.92-4.09Z" style="fill:#4c4c4c"/><path d="M287.43,335.49l-1.48.16.09,0-.11-2.9c.56-4.51-2.28-3.22-4.65-2.73.94-2.19,2.52-2.58,4.6-1.66,1.75.77,1.84,2.2,1.67,3.82C287.44,333.24,287.47,334.37,287.43,335.49Z" style="fill:#595959"/><path d="M240.77,332.05c.24-3.93-3.79-1.18-5.06-3.39,2.4-1.12,4.93-1.4,6.9,0,1.21.87-.21,2.36-1.23,3.27A.54.54,0,0,0,240.77,332.05Z" style="fill:#595959"/><path d="M288,260.53c-2.39,1-4.8.9-7.46.42C283.11,254.09,285.65,261.39,288,260.53Z" style="fill:#565656"/><path d="M281.28,330c2.37-.49,5.21-1.78,4.65,2.73-1.83,1.2-3.18,0-4.58-.93Z" style="fill:#d3d1d1"/><path d="M282.43,370.2c-1.4,2.9-1.72,5.78.21,8.6-5.55-2.43-2.72-6-1.32-9.43Z" style="fill:#5b5a5a"/><path d="M287.21,439.64c2.7.9,2.24,3,.91,4.24s-3.4,1.92-4.26-.92C285.5,442.39,287.25,441.92,287.21,439.64Z" style="fill:#474747"/><path d="M286.09,249c3.72,1.83,2.43,4.1-.07,7.48V250.4Z" style="fill:#606161"/><path d="M330.46,293.49l-3.48,0-1.28-1.33c.72-1.54,1.36-3.14,3-4.13,1.29,1.33-1.49,4.16,1.8,4.54A4.32,4.32,0,0,1,330.46,293.49Z" style="fill:#5d5d5d"/><path d="M325.93,330.22l-.13-1.33c2.8-1.4,5.56-2.67,5.88,2.29C330,329.65,328.11,329,325.93,330.22Z" style="fill:#595858"/><path d="M323.71,374.13l-.28,3.36c-1.46-3.21-3-6.44.95-9.08C323,370.19,323.48,372.17,323.71,374.13Z" style="fill:#585857"/><path d="M282.58,290l-1.06-1.09c1.54-2.45,3.53-.83,5.54-.87C286.17,290.74,283.92,289.21,282.58,290Z" style="fill:#7e7e7e"/><path d="M282.53,378.71a3.17,3.17,0,0,0,4-1.1l1.08.08a3.48,3.48,0,0,1-3.38,3.16C282.81,381,282.25,380.1,282.53,378.71Z" style="fill:#626262"/><path d="M287.21,439.64c0,2.28-1.71,2.75-3.36,3.32C283.24,440.1,284.22,438.86,287.21,439.64Z" style="fill:#1f1f1e"/><path d="M281.35,331.78c1.41.91,2.75,2.13,4.58.93l.11,2.9a3.7,3.7,0,0,0-4.66,0C282.08,334.32,279.54,333.07,281.35,331.78Z" style="fill:#525252"/><path d="M240.77,332.05a.54.54,0,0,1,.62-.09c0,2.1-.27,4-2.76,5.3C238.19,334.83,238.8,333.18,240.77,332.05Z" style="fill:#747474"/><path d="M286.09,249,286,250.4h-4.85C282.67,247.44,284.15,247.11,286.09,249Z" style="fill:#828282"/><path d="M287.62,377.69l-1.08-.08c1.07-2.45-.69-5.17.74-7.59C288.79,372.51,289.19,375.06,287.62,377.69Z" style="fill:#636262"/><path d="M325.37,259.06c2.08.08,4.05,1.21,6.29-1C329.33,261.74,329.33,261.74,325.37,259.06Z" style="fill:#5a5a5a"/><path d="M327.51,299.55c1.58.25,2.76-.58,3.94-1.42l1.22,0C330.39,301.57,329.44,301.83,327.51,299.55Z" style="fill:#676766"/><path d="M280.94,299.19h6.53C284.91,301.86,282.85,301,280.94,299.19Z" style="fill:#666"/><path d="M325.7,292.2l1.28,1.33c-1.57,1.77-1.36,3.82-.91,5.91C322.06,297.22,324.56,294.67,325.7,292.2Z" style="fill:#706f6f"/><path d="M331.66,254.31c-.12,1.36-.43,1.94-1.32,1.24s-2.46-.26-2.22-1.93c.13-.9,1-1,1.71-1A1.66,1.66,0,0,1,331.66,254.31Z" style="fill:#5d5e5d"/><path d="M325.57,250c2-2.6,3.36-2.55,5.16-.64C329.16,250.7,327.62,250,325.57,250Z" style="fill:#747373"/><path d="M282.43,370.2l-1.1-.83c1.87-2.43,3.81-1.75,5.78-.15Z" style="fill:#6c6b6b"/><path d="M332.67,298.16l-1.22,0c.46-1.71-.49-3.13-1-4.64a4.32,4.32,0,0,0,0-.88C333.33,293.62,333.13,295.84,332.67,298.16Z" style="fill:#545353"/><path d="M334,378l-1.1-1.59c1.6-1.26.82-3.08,1.07-4.65l.95,0C335,373.9,335.83,376.15,334,378Z" style="fill:#7a7a7a"/><path d="M334.92,371.77l-.95,0a2.5,2.5,0,0,1-.86-.22l-1.56-3.33C334.1,368,335.49,369,334.92,371.77Z" style="fill:gray"/><path d="M221.9,646.18c1.59,5.43.9,11,.82,16.48a.5.5,0,0,1-.67-.12c-1.85-5.37-1.23-10.92-1.17-16.43l.51,0Z" style="fill:#666567"/><path d="M220.66,613.41c1.52,5.43,1.2,11,1,16.5a7.78,7.78,0,0,1-1.05,0C219.72,624.38,218.6,618.89,220.66,613.41Z" style="fill:#636463"/><path d="M219.74,587.8a.47.47,0,0,0,.64.12l.34,25.66c-2.57-4.38-.87-9.18-1.25-13.76C219.15,595.84,219.62,591.8,219.74,587.8Z" style="fill:#212121"/><path d="M223.27,695.24c-1.87-5.37-1.38-10.91-1.21-16.43a2.92,2.92,0,0,1,.67-.13c.85,2.28-.75,5,1.27,7.06,0,1.23-1.78,2.56.21,3.67l-.4,6A.32.32,0,0,1,223.27,695.24Z" style="fill:#646464"/><path d="M223.27,695.24a.32.32,0,0,0,.53.13c1.24,5-1,10.32,1.56,15.16l-1.24,2.4C222,707.12,223,701.17,223.27,695.24Z" style="fill:#232222"/><path d="M222.72,678.69a2.92,2.92,0,0,0-.67.13q0-8.14,0-16.28a.5.5,0,0,0,.67.12l.44,15A1.36,1.36,0,0,0,222.72,678.69Z" style="fill:#232323"/><path d="M220.63,629.86a7.78,7.78,0,0,0,1.05,0l.21,16.27-.51-.09-.51,0Z" style="fill:#232223"/><path d="M339.55,513.11q0,56,0,112c-1.39-1.46-.92-3.3-.92-5q0-51,0-102C338.66,516.42,338.19,514.59,339.55,513.11Z" style="fill:#606161"/><path d="M344.22,669.62l1.49,10.51c-2.77-2.56-2.34-6-2.5-9.24Z" style="fill:#48484a"/><path d="M342.22,662.92l1.09,2.92c-2.25,1.23-.44,3.21-.88,4.77l-1.23.08-.4-4.6.36-3.26A2,2,0,0,1,342.22,662.92Z" style="fill:#f6f5f6"/><path d="M345.93,681.11c1.73,1.75,1.25,3.32-.38,4.81C343.35,684.14,345.36,682.68,345.93,681.11Z" style="fill:#777678"/><path d="M342.43,670.62c.44-1.56-1.37-3.54.88-4.77a5,5,0,0,1,.91,3.78l-1,1.26A1.09,1.09,0,0,0,342.43,670.62Z" style="fill:#5d5d5e"/><path d="M227.77,659.18c-.35-1.73-.4-3.41.92-4.83.24,1.62-.12,3.41,1.33,4.69l-.18,5.79a4.08,4.08,0,0,1-.85,0C228.33,663,230.07,660.66,227.77,659.18Z" style="fill:#bebdbf"/><path d="M225.37,710.53c-2.6-4.84-.33-10.18-1.56-15.16l.4-6c1.73-1.16.86-3.06,1.33-4.58,1.37-1.41.95-3.18,1-4.86l-.05-2.38,1.33-6.82,1.24,0-1,16.37-1.18,12.8c.4,2.84-2.15,5.22-1.28,8.13Z" style="fill:#d8d6d6"/><path d="M229,670.75l-1.24,0c-.33-1.14.28-2.61-1.14-3.38a3.66,3.66,0,0,1,.78-3.81c.58.34-.31,2.46,1.53,1.27a4.08,4.08,0,0,0,.85,0q0,2.79,0,5.58A2.13,2.13,0,0,1,229,670.75Z" style="fill:#9e9d9f"/><path d="M341.16,662.84l-.36,3.26a1.55,1.55,0,0,0-.69.12c-.06-1.33-.15-2.66-.19-4,0-.62.24-1,.84-.45C341,662,341,662.48,341.16,662.84Z" style="fill:#5d5d5e"/><path d="M235.59,109.08c-1.1-12.12-.47-24.28-.59-36.42l.39-.09.34.2c2.44,7.29.24,14.84,1.3,22.21l0,2.25L236.88,109Z" style="fill:#676668"/><path d="M315.79,40.09c-18.34,0-36.68.08-55-.05-3.53,0-6.47.61-8.65,3.53l-.86,0c.68-3.41,3-4.77,6.22-4.78q27.61-.05,55.21,0A3.41,3.41,0,0,1,315.79,40.09Z" style="fill:#262626"/><path d="M317.27,99.6c.22-19.81,1.29-39.63-.65-59.41,2.45,2,2.34,4.66,2.33,7.42,0,15.72,0,31.43,0,47.15l0,2.81-.45,3.16-1.35,0Z" style="fill:#242323"/><path d="M251.26,43.59l.86,0,.18,56-1,1.14-.41-3.13.07-2.77Z" style="fill:#222"/><path d="M336.37,109.07l-1.07-2.37-.4-7.07.21-24.42V73.86a2.37,2.37,0,0,1,.13-1.13l2,1.05.4.37-.21,2.13q0,.51,0,1a32.49,32.49,0,0,0,0,19q0,.39,0,.78C336,101,338,105,337.2,108.94A2.53,2.53,0,0,0,336.37,109.07Z" style="fill:#bcbbbc"/><path d="M319,97.57l0-2.81a48.4,48.4,0,0,0,15,.16l-.06,2.51Z" style="fill:#626262"/><path d="M250.92,94.79l-.07,2.77L237,97.23,237,95A48,48,0,0,0,250.92,94.79Z" style="fill:#646464"/><path d="M333.87,97.43l.06-2.51c.76-6.55-1.41-13.27,1.18-19.71l-.21,24.42h-.75Z" style="fill:#222"/><path d="M335.25,72.73a2.37,2.37,0,0,0-.13,1.13c-1.91-3.47-.91-7,0-10.43l.48-.08h.49C336.27,66.52,336.82,69.72,335.25,72.73Z" style="fill:#636363"/><path d="M235.73,72.78l-.34-.2-.39.09-.45-13.78,1.1-1.13Z" style="fill:#232323"/><path d="M337.23,48.17c.25,2.44.37,4.86-.9,7.1a7.53,7.53,0,0,1-1,.06c-.17-2.43-.49-4.87.9-7.1l.51-.08Z" style="fill:#656567"/><path d="M233.49,45.93c-1.18-1.84-1-3.88-.9-5.91a1.76,1.76,0,0,1,1,0c1.39,1.79,1.15,3.85,1,5.9Z" style="fill:#5d5d5d"/><path d="M235.64,57.76l-1.1,1.13c-1.37-1.87-1.14-4-.88-6.06l1.16-1.19A8.68,8.68,0,0,1,235.64,57.76Z" style="fill:#7a7a79"/><path d="M337.4,33.88c2.25,2.06.6,4.14,0,6.22a9.2,9.2,0,0,1-1,0A10,10,0,0,1,337.4,33.88Z" style="fill:#606062"/><path d="M335.32,55.34a7.53,7.53,0,0,0,1-.06l-.27,8.08h-.49l-.48.08Z" style="fill:#262626"/><path d="M336.49,40.14a9.2,9.2,0,0,0,1,0l-.22,8.07h-.51l-.51.08Z" style="fill:#2c2b2d"/><path d="M234.83,51.63l-1.16,1.19-.18-6.89,1,0Z" style="fill:#242424"/><path d="M343.25,43.76l-2.34,12.48C340.31,51.82,339.57,47.38,343.25,43.76Z" style="fill:#48484a"/><path d="M339.79,62.31c0,1-.16,2.09,1.18,2.44L340.89,66c-1.84.51-.79,2.11-1.2,3.16-1.5.68-.26,3-2.12,3.48C338,69.11,337.62,65.43,339.79,62.31Z" style="fill:#474746"/><path d="M337.57,72.61c1.86-.46.61-2.8,2.12-3.48l.95,2.31c.55,2.58-1.23,2.62-3,2.71l-.4-.37Z" style="fill:#b9b8b8"/><path d="M229.92,177.72c.21-2.39-2-3-3.2-4.42,3.8.65,3.29-2,3.29-4.28q0-21.84,0-43.67l.5.07H231l.32,47.6-.06,2.66Z" style="fill:#242424"/><path d="M231,125.41h-.51l-.5-.07c-1.89-8.19-.34-16.49-.82-24.72l1-1c2.25,4.6.36,9.54,1.16,14.25Z" style="fill:#696869"/><path d="M230.18,99.58l-1,1L228.85,74h1.28l.1,24.38Z" style="fill:#222123"/><path d="M219.43,169.31c.94-7.6-1.11-15.34,1.1-22.88,0,6.76.13,13.53.11,20.29C220.64,167.66,221.3,169.15,219.43,169.31Z" style="fill:#646464"/><path d="M230.12,74h-1.28c-.81-2-2.2-3.93,0-5.88.56,3.86,1.58-1,2.28.12l1,4.69-1,1.2A3.6,3.6,0,0,0,230.12,74Z" style="fill:#595a5a"/><path d="M229.85,57.62c-.46,2.71,2.52,5.34.18,8.09.1-1.55-.33-2.63-2.17-2.5V61.07c.75-.07.94-.56.92-1.22l.17-2.24h.88Z" style="fill:#333434"/><path d="M228.8,59.86c0,.65-.17,1.14-.92,1.22-4.1-.8-3.19-4.27-3.71-7h.56l.56,0,1.47,3.41C226.82,58.83,226.53,60.44,228.8,59.86Z" style="fill:#636362"/><path d="M227.86,63.2c1.84-.13,2.27,1,2.17,2.5l1.11,2.49c-.71-1.09-1.72,3.74-2.28-.12Z" style="fill:#acacac"/><path d="M225.29,54.09l-.56,0h-.56c-1.33-2.14-2.45-4.3-.78-6.78Z" style="fill:#595958"/><path d="M229.85,57.62H229l-1.18-2.54-.11-5.65C229.91,51.75,229.48,54.79,229.85,57.62Z" style="fill:#444"/><path d="M227.79,55.07,229,57.61l-.17,2.24c-2.27.59-2-1-2-2.36Z" style="fill:#ccc"/><path d="M347.89,41.24c-.67,3.15-.67,6.46-2.33,9.36h-.94c.81-3.1.43-6.47,2.18-9.35A10.44,10.44,0,0,0,347.89,41.24Z" style="fill:#565556"/><path d="M340.89,66l.08-1.22c2.46-1.15.39-5,3.41-5.79l-1.32,7.94h-1.85A3.52,3.52,0,0,1,340.89,66Z" style="fill:#3d3d3d"/><path d="M344.62,50.6h.94a10.14,10.14,0,0,1-1.08,7C342.17,55.22,344.92,52.94,344.62,50.6Z" style="fill:#545455"/><path d="M350.31,37.83l1.19-.1q0,.63,0,1.26l-1.19-.29A2.62,2.62,0,0,0,350.31,37.83Z" style="fill:#242426"/><path d="M352.39,104.21c.39,14.07.53,28.13-.85,42.16a1.42,1.42,0,0,1-1,.07l0-7.15a10,10,0,0,0,0-9.24c.47-8.58-.8-17.22.88-25.76l.49-.17Z" style="fill:#696969"/><path d="M340.75,149.86c.2,7.81-.95,15.66.6,23.43l-.42.2-.32-.35-2,.09q.06-11,.13-22.05l1-1.32h1Z" style="fill:#646464"/><path d="M341,76.3l-.11,43.15a1.28,1.28,0,0,1-.88,0l-.21-43.12Z" style="fill:#222"/><path d="M340,119.41a1.28,1.28,0,0,0,.88,0l-.09,30.41h-1C339.53,139.71,339.21,129.56,340,119.41Z" style="fill:#636362"/><path d="M350.52,146.45a1.42,1.42,0,0,0,1-.07q0,13.42.06,26.83l-1.19-.05-1.21-1.07-1.08-.94c3-.36,2.14-2.67,2.18-4.43C350.41,160,350.45,153.21,350.52,146.45Z" style="fill:#232222"/><path d="M354.94,83.42,352.69,95a3.22,3.22,0,0,1-1,.06C351,90.65,350.22,86.26,354.94,83.42Z" style="fill:#555554"/><path d="M341,76.3h-3.49l.21-2.13c1.73-.09,3.51-.12,3-2.71l.57-4.54h1.85C342.35,70,342.6,73.38,341,76.3Z" style="fill:#545454"/><path d="M357.07,73.88c-.83,2.42-.46,5.18-2.08,7.38-2.13-3.19,0-5.91,1-8.76Z" style="fill:#6e6d6d"/><path d="M348.11,171.15l1.08.94c-2.34.93-4.42,3.55-7.27,1.09Z" style="fill:#636362"/><path d="M350.5,130.05a10,10,0,0,1,0,9.24Z" style="fill:#656565"/><path d="M351.67,95a3.22,3.22,0,0,0,1-.06l-.31,9.25-.51-.09-.49.17Z" style="fill:#2c2b2d"/><path d="M357.07,73.88,356,72.5c.09-1.56-.15-3.22,1.27-4.4l1.13,0Z" style="fill:#5a5a5a"/><path d="M329.23,122.76c-15.94.12-31.87.33-47.81.35-13.61,0-27.21-.17-40.82-.27a2.77,2.77,0,0,0-.05-1.12l88.72,0A1.54,1.54,0,0,0,329.23,122.76Z" style="fill:#1f1f1f"/><path d="M326.8,117.67l-.1.44.39.23c-1,1.24-2.37,1.17-3.72,1.17l-71.15-.22q0-.41,0-.83l68-.25Z" style="fill:#222"/><path d="M232.62,115.84l-.44-2.07.34-14a4,4,0,0,1,.79-.05l.32,15Z" style="fill:#242425"/><path d="M236.88,109a20.8,20.8,0,0,0,3.12,7.05c-3.82-.84-4.53-3.64-4.41-7Z" style="fill:#5f5e5f"/><path d="M233.32,99.72a4,4,0,0,0-.79.05l-.14-10.63h.49l.48,0Z" style="fill:#636365"/><path d="M233.36,89.17l-.48,0h-.49l-1.1-1.24.09-1.23c1.56-1.81.75-3.9.69-5.9l.29-.08.15.26C234.05,83.57,233.12,86.43,233.36,89.17Z" style="fill:#797879"/><path d="M335.13,109c-2.55-2.89-.69-6.24-1-9.37h.75l.4,7.07Z" style="fill:#2a2b2b"/><path d="M336.37,109.07a2.53,2.53,0,0,1,.83-.14l1.16,0c0,1.66.3,3.36-.79,4.83l-1.11-1.19Z" style="fill:#737375"/><path d="M231.09,74.09l1-1.2L232.5,81l-.15-.26-.29.08a1.36,1.36,0,0,1-.73.11Z" style="fill:#262627"/><path d="M252.22,118.45q0,.41,0,.82l-8-.06,1.09-.93,4.33-.1Z" style="fill:#252525"/><path d="M336.45,112.56l1.11,1.19.14,1.21c-.45,1.45-.62,3.11-2.58,3.41Z" style="fill:#4b4b4b"/><path d="M232.62,115.84l1-1.13a7.79,7.79,0,0,1,2.28,5.16C234.3,119,232.87,117.88,232.62,115.84Z" style="fill:#6e6d6d"/><path d="M245.26,118.29l-1.09.93c-2-.39-4.14-.52-4.17-3.33Z" style="fill:#5a5a5a"/><path d="M329.23,122.76a1.54,1.54,0,0,1,0-1c1.25-1.71,2.77-1.73,4.46-.71Z" style="fill:#4d4d4c"/><path d="M240.55,121.72a2.77,2.77,0,0,1,.05,1.12,7.85,7.85,0,0,1-4.58-1.93A3.15,3.15,0,0,1,240.55,121.72Z" style="fill:#626161"/><path d="M350.5,551.56V513.11c2.1,9,.58,18.06.85,27.08C351.47,544,352.44,547.91,350.5,551.56Z" style="fill:#656565"/><path d="M348.17,650.93V645.1c1.51,1.85.77,3.94.63,6A3.29,3.29,0,0,0,348.17,650.93Z" style="fill:#5e5e60"/><path d="M350.4,173.16l1.19.05c1.07.58,1,1.52.82,2.52l-1.09,2.33A7,7,0,0,1,350.4,173.16Z" style="fill:#7b7b7b"/><path d="M351.32,178.06l1.09-2.33.37,5.63h-1.18Z" style="fill:#373737"/><path d="M224.21,191.24c-.05,2.44,0,4.14,3.56,4.12q57.71-.24,115.42,0c5,0,2.41-2.73,2.52-4.64l.41.18.44-.1,1.66,4.27-.37,1.94c-1.92-.15-3.84-.43-5.76-.43q-56.71,0-113.42,0c-2,0-4.28-1.05-5.95,1a1.05,1.05,0,0,0-1,.05A10.92,10.92,0,0,1,224.21,191.24Z" style="fill:#222121"/><path d="M349.29,206.54l-.27-5.11,1-1.24,1.29,8.08h-.94Z" style="fill:#3a3a3a"/><path d="M343.13,185c-.91-1.59-3-3-1-5.11a8,8,0,0,1,2.23,5.06Z" style="fill:#5f5f5e"/><path d="M343.13,185l1.24-.05c1.06,1.85,2.12,3.7,2.19,5.92l-.44.1-.41-.18C343.81,189.28,343.54,187.09,343.13,185Z" style="fill:#575757"/><path d="M341,177.88c-1.7.08-1.17-2-2.31-2.42q0-1.11,0-2.21v0l2-.09C341.69,174.66,340.95,176.3,341,177.88Z" style="fill:#4b4b4b"/><path d="M350,200.19l-1,1.24a5.21,5.21,0,0,1-1.17-4.4l.37-1.94C349.76,196.46,349.43,198.48,350,200.19Z" style="fill:#5d5d5d"/><path d="M350.36,208.26h.94l.39,3.36-1.22,2.29a2.62,2.62,0,0,0-.34-1Z" style="fill:#2c2c2c"/><path d="M221.74,197.72a1.05,1.05,0,0,1,1-.05l-2,8.35C219.06,203,220.08,200.32,221.74,197.72Z" style="fill:#4d4d4c"/><path d="M226.53,680c-.05,1.68.37,3.46-1,4.86-1.62-1.57-1.11.47-1.54.91-2-2.07-.42-4.78-1.27-7.06a1.36,1.36,0,0,1,.43-1C224.06,678.74,225,679.84,226.53,680Z" style="fill:#8e8d8f"/><path d="M226.67,667.39c1.42.78.81,2.24,1.14,3.38l-1.33,6.82C223.85,674.14,226.49,670.79,226.67,667.39Z" style="fill:#3a3a3b"/><path d="M220.5,581.93a5.85,5.85,0,0,1,0-6.93Z" style="fill:#646464"/><path d="M229,664.85c-1.85,1.19-1-.93-1.53-1.27l.32-4.4C230.07,660.66,228.33,663,229,664.85Z" style="fill:#39393b"/><path d="M227.69,184.89c-1.49,2-.21,5.52-3.56,6.51C224.76,188.92,223.9,185.63,227.69,184.89Z" style="fill:#4d4d4d"/><path d="M230,179c-.84,1.62-.75,3.69-2.34,5C226.85,181.57,226.54,179.4,230,179Z" style="fill:#5e5d5d"/><path d="M329.26,376.51c-3.2,2.38-3.59-.71-4.71-2.41,1.46-1,2.4-4.09,4.85-1.24C327.88,374,329.72,375.31,329.26,376.51Z" style="fill:#5c5c5c"/><path d="M329.26,376.51c.45-1.2-1.39-2.49.15-3.65l2.06.17a2.61,2.61,0,0,0,.35,3.49C331,377.86,330.11,378.05,329.26,376.51Z" style="fill:#595959"/><path d="M331.82,376.51a2.61,2.61,0,0,1-.35-3.49l1.63-1.5a2.51,2.51,0,0,0,.86.22c-.25,1.58.54,3.39-1.07,4.65A7.19,7.19,0,0,1,331.82,376.51Z" style="fill:#acacac"/><path d="M224,685.75c.43-.44-.08-2.48,1.54-.91-.46,1.52.4,3.43-1.33,4.58C222.21,688.3,224,687,224,685.75Z" style="fill:#333334"/><path d="M314.14,104.4c-5.51,1.6-11.14.61-16.7.7-12.22.18-24.45.08-36.67.08-2.11,0-4.29.28-6.21-1l.15-1.51c19.81.74,39.61.67,59.42,0l0,.49Z" style="fill:#656565"/><path d="M286.17,78.66c3.18-.46,6.17.52,9.21,1.16l2.24,3.39c-4.24,1.47-7-1.91-10.36-3.21Z" style="fill:#585757"/><path d="M284.83,70.54c-1.64,1.92-3.12,1-4.57-.26l-.15-9,1.43-1.17c1.32.27,1,1.4,1.15,2.25.27,2.32-1.1,4.89,1,6.93l1.35.25A2,2,0,0,1,284.83,70.54Z" style="fill:#919193"/><path d="M286.17,78.66,287.26,80c-1,5.2-4.11,5.53-8.2,3.45,1.8-.28,3.93.09,4.63-2.35A3.9,3.9,0,0,1,286.17,78.66Z" style="fill:#ecebea"/><path d="M297.62,83.21l-2.24-3.39a4.19,4.19,0,0,0,1.12-.16c2-.88,4.88-1.36,5.42.75C302.58,83,299.55,82.91,297.62,83.21Z" style="fill:#c3c2c2"/><path d="M284.83,70.54a2,2,0,0,0,.23-1c2.55-2.13.42-4.7.68-7l1.53-.22q.51,0,1,0l.32,7.12C287.74,71,286.26,70.67,284.83,70.54Z" style="fill:#5e5d5f"/><path d="M266.57,81.7c1-.94.58-3.16,2.82-3,1.54.14,1.67,1.28,1.78,2.44.16,1.68-.51,2.6-2.28,2.23C267.92,83.21,266.38,83.61,266.57,81.7Z" style="fill:#737171"/><path d="M287.27,62.26l-1.53.22a2.61,2.61,0,0,0-.89.12,1.55,1.55,0,0,0-.92-.27l-1.24,0c-.18-.85.17-2-1.15-2.25l-1.46-.2c.13-1.76,1.49-1.32,2.55-1.42l3.42.45L287.17,61Z" style="fill:#515052"/><path d="M283.69,81.1c-.7,2.44-2.83,2.07-4.63,2.35l-1.16-.37,1.15-3.15A4.87,4.87,0,0,1,283.69,81.1Z" style="fill:#353534"/><path d="M280.07,59.89l1.46.2-1.43,1.17c-1.9,3.4-.93,7-.58,10.48C276.91,67.67,276.4,63.68,280.07,59.89Z" style="fill:#6c6b6c"/><path d="M279.06,79.93l-1.15,3.15c-1.52.1-3.92,1.11-3.4-1.76C275,78.89,276.94,78.49,279.06,79.93Z" style="fill:#313131"/><path d="M279.53,71.74c-.35-3.52-1.32-7.08.58-10.48q.08,4.51.15,9Z" style="fill:#c5c5c6"/><path d="M287,57.59c3.51-1.08,3.08,1.54,3.32,3.53a1.31,1.31,0,0,1-.61-.05,1.12,1.12,0,0,1-1,0l-.33.13-1.22-2.68A2.62,2.62,0,0,0,287,57.59Z" style="fill:#707071"/><path d="M288.68,61.08a1.11,1.11,0,0,0,1,0q0,3.52.09,7l-.42,1.23-.39,0-.39,0-.32-7.12Z" style="fill:#cac9cb"/><path d="M289.8,68.12q0-3.52-.09-7a1.32,1.32,0,0,0,.61,0c1.13,2.27.73,4.63.39,7Z" style="fill:#69686a"/><path d="M254.7,102.71l-.15,1.51a4.44,4.44,0,0,1-3.3-3.53l1-1.14Z" style="fill:#686868"/><path d="M289.8,68.12h.9c.35,1.64.75,3.28-.79,4.69-1.59-1,.2-2.42-.53-3.45Z" style="fill:#676768"/><path d="M287,57.59a2.62,2.62,0,0,1,.13.94l-1.1.4-3.42-.45C283.87,57.16,285.51,57.71,287,57.59Z" style="fill:#f8f8f8"/><path d="M314.08,103.23l3.1-2.47,1.35,0c-.64,2.21-1.87,3.72-4.39,3.67Z" style="fill:#565655"/><path d="M337.7,115l-.14-1.21c1.09-1.48.83-3.17.79-4.83,0-4,1.12-8-.9-11.83q0-.39,0-.78,0-9.51,0-19,0-.5,0-1h2.28l.21,43.12c-.75,10.15-.43,20.3-.17,30.45l-1,1.32c-.06-10.25-.1-20.5-.18-30.74C338.59,118.58,339.39,116.55,337.7,115Z" style="fill:#bab9ba"/><path d="M337.5,77.29q0,9.5,0,19A32.49,32.49,0,0,1,337.5,77.29Z" style="fill:#646464"/><path d="M337.46,97.09c2,3.81.86,7.87.9,11.83l-1.16,0C338,105,336,101,337.46,97.09Z" style="fill:#606062"/><path d="M341.21,66.91l-.57,4.54-.95-2.31c.41-1.05-.64-2.65,1.2-3.16A3.52,3.52,0,0,0,341.21,66.91Z" style="fill:#f4f4f3"/><path d="M338.65,173.25q0,1.11,0,2.21l-107.38.21.06-2.66a31.25,31.25,0,0,0,4,.51q50.2,0,100.4,0A27.82,27.82,0,0,0,338.65,173.25Z" style="fill:#646464"/><path d="M231.29,87.91l1.1,1.24.14,10.63-.34,14-.43,0-.42.09c-.81-4.72,1.09-9.65-1.16-14.25l0-1.23C232.33,95,230.6,91.35,231.29,87.91Z" style="fill:#959596"/><path d="M231.29,87.91c-.69,3.45,1,7.14-1.06,10.45L230.12,74a3.6,3.6,0,0,1,1,.12l.24,6.8,0,5.79Z" style="fill:#c8c8c9"/><path d="M303.84,135.63c2,7.2.62,14.54.78,21.81,0,1.21-1.13,1.36-2.16,1.28v0c1.24-4,.3-8,.7-12,.32-3.2-1.15-3.87-4-3.8-6.93.17-13.87.21-20.79,0-2.91-.09-6.06,1.16-8.73-1.08,1.44-1.25,2.7-2.53,5-2.45,6.56.23,13.12.18,19.68.23,3.15,0,6.46.88,9.13-1.68l-.49-2,.51.09Z" style="fill:#545455"/><path d="M303.39,137.83c-2.67,2.57-6,1.71-9.13,1.68-6.56-.05-13.13,0-19.68-.23-2.28-.08-3.53,1.2-5,2.45-2.37.85-3.47,2.26-3.31,5,.24,4.15-.06,8.32-.12,12.49l0-.1a54,54,0,0,1,0-24.52l1.17,1.1c-1.53,2.13-.33,2.74,1.61,2.69C280.43,138.12,291.93,139.27,303.39,137.83Z" style="fill:#555455"/><path d="M267.34,135.74l-1.17-1.1c1.21-1.9,3.12-1.09,4.72-1.1q13.83-.12,27.67,0c2,0,4.42-.84,5.28,2.1l-.43.29-.51-.09Z" style="fill:#7d7d7f"/><path d="M302.46,158.67v0c1.24,2.06-.77,1.75-1.51,1.75-11,.05-22,0-33.06,0a1.61,1.61,0,0,1-1.67-1.27l0,.1Z" style="fill:#525152"/><path d="M251,116.77v-.39a21.18,21.18,0,0,1,9-1.7c16.53.11,33.06,0,49.58,0,2.32,0,4.68-.25,6.87.84.23.28.59.53.64.84s-.31.77-.49.77c-7.75.09-15.5.29-23.25.15C279.23,117.07,265.08,118.12,251,116.77Z" style="fill:#d0cdcd"/><path d="M251,116.77c14.11,1.35,28.25.3,42.38.56,7.75.14,15.5-.06,23.25-.15.18,0,.53-.54.49-.77s-.41-.56-.64-.84l1.15-.74c1.55,0,1.92,1.32,2.61,2.29a1.73,1.73,0,0,0,0,1.09l-68,.25-2.62-.26Z" style="fill:#414141"/><path d="M317.6,114.82l-1.15.74c-2.19-1.09-4.55-.84-6.87-.84-16.53,0-33.06.06-49.58,0a21.18,21.18,0,0,0-9,1.7c-.78-4,2.45-2.76,4.07-2.78,11.27-.15,22.54-.09,33.81-.09,7.77,0,15.54,0,23.32,0C314.06,113.55,316.11,113.06,317.6,114.82Z" style="fill:#262626"/><path d="M320.19,118.2a1.73,1.73,0,0,1,0-1.09c2.44-2.71,4.47-.57,6.6.55Z" style="fill:#f7f6f6"/><path d="M231.37,86.68l0-5.79a1.36,1.36,0,0,0,.73-.11C232.12,82.78,232.94,84.87,231.37,86.68Z" style="fill:#626264"/><path d="M284.85,62.59a2.61,2.61,0,0,1,.89-.12c-.26,2.35,1.88,4.92-.68,7l-1.35-.25.2-1.21C285.62,66.48,284.57,64.42,284.85,62.59Z" style="fill:#d4d3d4"/><path d="M283.91,68.06l-.2,1.21c-2.12-2-.75-4.61-1-6.93l1.24,0Z" style="fill:#212122"/><path d="M288.68,61.08l-.4,1.14q-.5,0-1,0l-.1-1.27,1.19.22Z" style="fill:#323134"/><path d="M288.36,61.21,287.17,61,286,58.93l1.1-.4Z" style="fill:#747374"/><path d="M267.34,135.74l35.56.08.49,2c-11.46,1.43-23,.29-34.45.6C267,138.48,265.81,137.87,267.34,135.74Z" style="fill:#e2e1e1"/><path d="M282.47,153.49c1.16-.35,2.18-.79,2.35-2.22.2-1.6-.4-3.9,2.46-3.57,1.7.2.89,1.81,1.27,2.76,1.18,2.94-1.25,3-2.81,3.62a2.67,2.67,0,0,1-3.18-.68Z" style="fill:#848385"/><path d="M292.5,151.1c-.1-1.09-1.91-1.64-1.1-2.88.27-.41,1.49-.54,2.11-.32,2.08.71,2.15,2.42,1.74,4.25Z" style="fill:#545355"/><path d="M292.5,151.1l2.74,1c-.83,2.1-2.4,3-4.15,1.48C290.22,152.86,290.39,151.06,292.5,151.1Z" style="fill:#626163"/><path d="M280.06,151.71c.16-1.24,0-3.32,1.76-2.78,2.46.77,1.84,2.81.65,4.56l.09-.08-2.27.12Z" style="fill:#706f71"/><path d="M280.06,151.71l.23,1.81c-1.8,0-3.72,1.37-5.54-.45C276.29,151.33,278.55,152.92,280.06,151.71Z" style="fill:#717171"/><path d="M277.69,147.83a7.51,7.51,0,0,1,.53,1.32,1.38,1.38,0,0,1-2.39-.31C275.53,148.23,276,147.87,277.69,147.83Z" style="fill:#71706f"/></svg>