<svg id="Layer_1" data-name="Layer 1" xmlns="http://www.w3.org/2000/svg" viewBox="0 0 595.28 841.89"><title>samsung back</title><path d="M258.24,588.39c-.61-2.43-1.63-4.84-1.73-7.29-.25-6-.08-12.1-.08-18.24-4.54.77-4.54.77-4.54,11.41,0,4.93,0,9.86,0,16.17-3.28-12,4.78-25.37-8.95-33.54v38.82h-1.67c0-12.46.16-24.92-.14-37.37-.06-2.39-1.94-4.73-3-7.09l-2.4.77v72H234.6V551.94H215.25V624.8l-2,.09c-.13-2.27-.36-4.55-.37-6.82,0-20.32,0-40.65-.08-61,0-2-.93-3.91-1.43-5.86l-2.52.51v72.19H207.5V551.56c-14.12,0-27.6-.36-41,.28-2.94.14-7,3.25-8.25,6-2,4.49-4.82,4.48-8.53,4.46-16-.07-32.07,0-48.1,0-9.44,0-9.39-.07-9.39-9.23q0-125.67,0-251.34,0-3.66,0-7.32h1.67V559.33l2.14,0V531.26h1.53v29.81h34.13c3.84,0,7.68-.14,11.52,0,6.1.27,11.22.37,15.24-6.42,2-3.42,8.87-5.41,13.62-5.56,19.4-.61,38.83-.36,58.25-.2,7.34.06,13.65,2.45,17.33,9.56a4.83,4.83,0,0,0,3.35,2.4c17.77.15,35.55.11,53.9.11V527.45h1.34v31.92l2.08.25a55.08,55.08,0,0,0,1-7.5q.1-71.81,0-143.62c0-94.62-.45-189.24.13-283.85.1-16,4.45-32,6.79-48,.44-3,.61-6,2.21-9.15,0,2.84.68,5.9-.11,8.5-6.65,21.84-8.47,44.09-6.21,67.44H445.09v1.61H312l-.18,2.07c2.38.2,4.77.58,7.15.58q58.94.05,117.88.08c2.59,0,5.17.82,7.75,1.26H312v10c7.31-.56,14.16-1.52,21-1.48,7.65,0,15.3,1,22.93,1.53H332.83c1.09,2,1.54,4.18,2.71,4.65,6.12,2.45,17.72-.43,20.34-4.68,26.76-.16,53.53-.18,80.29-.59,5.1-.08,8.12,1.38,9.28,6.34-1.23.9-3.33,1.62-3.56,2.73-1.58,7.46-2.82,15-4,22.54-.25,1.52-.55,3.49.16,4.65,5.92,9.58,4.76,20.37,5,30.73q.74,31.41-.95,62.85V227.75h-1.67V290h-2V215.88H394.76V358.73h43.17V292.88l1.75,0V504.14l-1.39,0V374.28H394.83v47.65c7.92,2.26,7.7,2.26,7.7,17.33,0,5.74-2.24,8.37-8.3,8.08v55.16h-1.15V452.7h-1.51v51.2l-1.89,0V447.44c-7.25.19-8.21-4.13-7.36-9,1-5.86-4.47-14.42,6.38-16.2V374.31H346.85c0,2,0,4.12,0,6.26,0,43.14-.06,86.28.13,129.41,0,3.3,1.76,6.6,2.7,9.9q0,2.64,0,5.29l-37.81,1,.07,2.12h35.73l-4.49,7.19,8.5-.54c-2.28,1-4.53,2.76-6.85,2.84-9,.34-18,.11-26.94.16-2,0-4.06.3-6.09.46q0,1,0,1.91c2.24.15,4.48.41,6.72.43,8.53.05,17.07-.13,25.59.14,2.17.07,4.3,1.44,6.44,2.2H311.95l0,1.76c8.64,0,17.29-.16,25.93.06,4.65.12,9.28.88,13.93,1.35H312c-.13,2.31-.33,4.46-.35,6.62-.1,8.65-.83,9.42-9.77,9.45-14.43,0-28.85,0-44.79,0l1.17,26.1ZM346,361.06h0c.79,2.91-3.48,7.18,2.34,8.73a14.6,14.6,0,0,0,.46,2.74q18.93.19,37.87,0c.22,0,.41-1.89.62-2.89l4.62-6.61-9.58.43-.94,1.93,6.18,4.44L348.1,370c1.43-2.31,8.08-.68,5.46-5.59Zm41.61-149.79c-13.34.42-26.79-.75-40,1.77,12.84,1.09,25.62,1.12,38.41,1,.46,0,.89-1.91,1.35-2.92,1-1.35,2.56-2.59,2.91-4.1s-.51-3.28-.84-4.94L382,208.81Zm1,147.65V215.82H347.29V358.92Zm-47.41-2.75V211.74H312V356.17Zm-29.12,14V513.19h29.11V370.12ZM440.7,160.37H358.16v1h24.77c-7.34.76-14.68.62-22,.87-1.51.05-3,1.59-4.44,2.44,1.41.66,2.79,1.83,4.23,1.9,4.95.24,9.92,0,14.87.21,1,0,1.93,1.36,2.91,2.11H357.13l3.26,16.61h11.19l-3.84,6c14.49-1.55,11.18-13.58,15.39-20.65-.22,4.11-.28,8.25-1.53,12-1.82,5.44,1.56,6.69,5.24,6.76,14.88.27,29.76.19,44.64,0,1.57,0,4.24-1.49,4.49-2.68C437.81,178.21,439.16,169.39,440.7,160.37ZM311.89,194.11l-.22,1.5a13.92,13.92,0,0,0,3.38.87c36.52,0,73,.13,109.56-.11,3.37,0,6.73-2.16,10.09-3.32l-.46-1.75a58,58,0,0,0-6.37-.31c-19.22,1.09-38.49-1.88-57.76,2.57-9.64,2.22-20.19.52-30.33.55C330.48,194.14,321.19,194.11,311.89,194.11Zm31.16,328.75h.79v-314h-.79Zm48.78-105.7.76,0V203.45h-.76Zm-64.48-232,2.72-16.81H312C311,184.61,313.56,187.16,327.36,185.15Zm30.2-9.92H330.73c-.34,10.09,0,10.43,9.47,10.45h8.09C356.61,185.66,357.45,184.76,357.56,175.23Zm36.79,26.64c0,2.77-.46,5.33.15,7.61.46,1.73,2.24,4.4,3.49,4.43,12.87.33,25.75.2,38.62.2l.1-2.19H398.54l4.58-6.12Zm-7.92,239.55H398.1V428.54H386.42ZM343.73,191.11c6.55,0,13.1.13,19.65-.11,1.29,0,2.53-1.48,3.79-2.28-1.23-.61-2.48-1.78-3.68-1.73-6.27.25-12.52,1.18-18.78,1.16-6.95,0-13.89-.93-20.84-1.14-1.31,0-2.66,1.37-4,2.1,1.4.66,2.79,1.84,4.21,1.88C330.62,191.22,337.18,191.1,343.73,191.11Zm-2,344,1.59-1.51c-1.39-1.21-3-3.64-4.12-3.44-7.65,1.32-16.46-2.69-23.24,2.74l.41,2.21Zm54.09-164.31,0,1.42h40.93v-1.42Zm-11-169.86H313.18a14.78,14.78,0,0,0,6.61,1c18.91,0,37.82,0,56.73,0,3,0,5.8-.16,6.46,3.72a9.38,9.38,0,0,0,1.56,0ZM333.56,524.44c-.33-1.78-.46-3.33-.65-3.34q-10-.46-20-.55c-.38,0-1.27,1.56-1.06,2,.38.8,1.38,1.81,2.14,1.83C320.41,524.5,326.81,524.44,333.56,524.44Zm92.5-320c-.72-2.15-.84-4.11-1.87-5-.68-.56-2.66.66-4.09.76a93.7,93.7,0,0,1-9.41.25,24.33,24.33,0,0,1-4.71-1.08l-.89,5Zm-114.13,311,.06,1.19h28.29l-.06-1.19Zm18.25-348.73,1.16-1.83c-1.12-.8-2.2-2.2-3.38-2.29a103.61,103.61,0,0,0-12.72-.21c-1.19.05-2.34,1.26-3.5,1.95,1.26.8,2.49,2.21,3.8,2.28C320.41,166.9,325.3,166.73,330.19,166.73ZM404.1,205.9l-.11,2.46c7.82,0,15.64,0,23.45-.12.28,0,.53-1.72.71-2.35ZM367,207.36a30.38,30.38,0,0,0,6-.1c1.33-.27,2.46-1.51,3.68-2.32-1.45-.55-2.88-1.5-4.36-1.58a105,105,0,0,0-11.52,0c-1,.05-2,1.06-3,1.63.8.77,1.52,2.08,2.42,2.22A48.59,48.59,0,0,0,367,207.36Zm69,154.19.24-.76H397q0,.38,0,.76Z"/><path d="M349.69,525.17v-5.29l3-1.43c.15.54.31,1.54.47,1.54,11.41.07,22.81.07,34.22.07v-1.38H352.55c8.47-.33,16.94-.69,25.41-1,3.36-.11,6.72,0,10.58,0l.87-10.76,1.68-.17.82,16.35.95,0V508.61l1.09-.05.6,8.6h42.71l1.11-10.31,1.64.08v19.54l1.73.06V508l1.56,0v25l-5.64-3.42.47,5.43h8.52v25.59l-.48,0V538.1l-9.66-.45v21.72H435V538.14l-2.66-.29c-3.51,6.56,0,14.39-2.42,21.28V537.9h-7.68c-21.46,0-42.91.09-64.37-.13-2.13,0-4.25-1.85-6.37-2.84H372c-4.9-8.6-13.28-2.07-20.37-6.77h81.77l0-2c-2.05-.14-4.1-.4-6.16-.41-11.94,0-23.89.06-35.83,0C377.54,525.6,363.62,525.35,349.69,525.17Zm23.71,5.42,0,1.26h57.22l0-1.26Zm.87,3.52,0,.75h55.22v-.75Zm61.46-14,.3-.75H397v.75Z"/><path d="M382.68,612.19c14.76,0,29.52,0,44.29.06.37,0,.73.92,1.26,1.65h-52.5v21.58H427.6c-1.81.49-3.54,1.32-5.28,1.35-7.68.13-15.39-.46-23,.14s-15.36,2.4-23.07,3.45a78.71,78.71,0,0,1-10.11.46q-14.23.09-28.46,0c-7.13,0-9.76-2.54-9.57-9.85s1-14.77,1.55-22.83l13.89,1c-1.69,2.21-1.91,2.8-2.2,2.84-10.73,1.42-10.72,1.41-10.74,12.23,0,16.42-.64,13.88,14.33,14,8.58.07,17.16,0,25.74-.1a7.36,7.36,0,0,0,1.66-.54V612.35h-11.9l-.43-1.9c1.52-.64,3-1.83,4.57-1.84,21.87-.12,43.75-.08,65.65,1.14H382.66Z"/><path d="M386.3,667.51c6.63-5.19,14.15-.19,17.91-7.83,1.59-3.23,16.58-.7,18.9,2.39a5.37,5.37,0,0,0,3.68,1.9c8.32.17,16.64.09,25.78.09V627.81l1.09,0V778.59h-.83V668.44l-2.43-.54c-.63,2-1.81,4-1.82,6.06-.12,27.76-.08,55.52-.08,83.28q0,10.77,0,21.54h-1.11V667.51ZM421.17,666l0-1.42h-16V666Z"/><path d="M473.7,503.88v-211H475v211Z"/><path d="M294.6,485.57V109.9H295V485.57Z"/><path d="M473.65,780.11V626.3h1.29V780.11Z"/><path d="M380.77,676.46c2.76-8.29.31-12.36-8-12.28-21.38.21-42.75.75-64.12,1.05-1.42,0-2.85-.89-4.52-2.75,3.07-.82,6.13-2.33,9.2-2.36,20.3-.22,40.6-.16,60.91-.09,7.91,0,12,3.8,11.95,10.56-.07,6.92-3.81,9.7-12.3,9.66-18.5-.1-37,0-55.49,0-2.2,0-4.4,0-6.61-1.4h26.81c11.28,0,22.56.06,33.84-.06,2.36,0,4.71-.77,7.06-1.19Zm-6.51-14.15.3-.59H312.83v.59Z"/><path d="M276.24,619.15,270.41,617l0-1.51c7.15-1,14.27-2.36,21.46-2.85,6.48-.44,8.82,2.29,8.92,8.8,0,2.25.38,4.57-.05,6.73s-1.5,5.6-2.53,5.69a206.34,206.34,0,0,1-21.45.44c-.44,0-1.21-2.52-1.19-3.86C275.62,626.67,276,622.89,276.24,619.15Zm10.94,11c4.44.26,8.5.76,8.48-6,0-6.6-3.85-6.31-8.36-6.3s-8.29-.41-8.37,6.25C278.84,630.88,282.82,630.4,287.17,630.13Z"/><path d="M234.82,669.86V629.08h.91v35c5.66,0,10.77,0,15.88,0,.87,0,2.33-.08,2.52-.53,3.87-9.54,12-3.06,17.94-4.55,1-.25,2.88,3,4.24,4.43h17.55l2.78,3.62a24.77,24.77,0,0,1-4.54.94c-17.78.19-35.55.28-53.33.5C237.45,668.47,236.13,669.37,234.82,669.86Zm21.78-5.12-.07,1.44h16.86l0-1.44Z"/><path d="M92.21,288.4q0-3.63,0-7.26,0-64.35,0-128.69c0-25.49.08-51-7.83-75.64A12.06,12.06,0,0,1,84,73.45c0-1,.12-2.09.24-4,6.84,21.37,9.42,42.38,9.27,63.94-.34,49.22-.1,98.44-.1,147.66q0,3.65,0,7.3Z"/><path d="M213.38,780.12V674.85l1.14,0V780.11Z"/><path d="M453.6,294.32V503.14h-.5V294.32Z"/><path d="M472.32,186.8c1.07,3.35,3,6.7,3.07,10.06.24,30.26.15,60.52.12,90.77,0,.75-.38,1.49-2.07,2.25-.14-2.23-.4-4.46-.41-6.7,0-21,.14-42-.07-63-.11-11-.88-21.95-1.36-32.92Z"/><path d="M442.11,502.75V294.49H443V502.56Z"/><path d="M466.55,502.49V294.29h.61v208.2Z"/><path d="M479.35,294.31V502.46h-.59V294.32Z"/><path d="M298,78.35q-95.9.2-191.81.28c-.75,0-1.5-1.84-1.9-3.08,3.19,1.88,186.05,3.11,193.69,1Z"/><path d="M362.76,618v12c-6.59,0-12.88.34-19.07-.27-1.33-.13-3.23-3.73-3.22-5.72s1.93-5.59,3.29-5.73C349.94,617.68,356.21,618,362.76,618Z"/><path d="M296.6,492.87H106v-1H296.57Z"/><path d="M107.41,487V294.29H108V486.93Z"/><path d="M108,101.92V288.25h-.62V101.7Z"/><path d="M193.21,52.74c-3.09,0-6.3-.54-9.22.15-3.19.75-6.12,2.63-9.17,4,3,1.79,5.87,4.92,9,5.13,10.34.67,20.74.3,31.12.33H221l0,1.83a17.64,17.64,0,0,1-3.46.7c-11.51,0-23,.15-34.52,0-7.6-.12-13-3.52-12.28-7.77,1.28-7.09,7.12-7,12.67-7,3.21,0,6.41,0,9.62,0Z"/><path d="M452.62,177.45l13.58,1.33c-10,7.9-9.8,20-10.57,30.57-1.69,23.36-1.28,46.86-1.71,70.31-.05,2.89,0,5.78-1.09,8.67V234.91l-6.69-1.11,5.91-1.13L454,203.08l-5.78-3.19c3.74,1.34,6.4,2.39,7.67-2.88s2.61-10.44,4.28-17.06L453,181.65Z"/><path d="M479.34,627.72V778.81h-.57V627.72Z"/><path d="M467.15,627.69V778.83h-.58V627.69Z"/><path d="M408.88,700.8H276.52C279.46,699,394.8,697.65,408.88,700.8Z"/><path d="M407.17,709.7H280.82v-.65H407.16Z"/><path d="M473.7,623.14V564H475v59.2Z"/><path d="M397.39,631.5v-15c5.55,0,10.85-.2,16.13.05,6,.29,3.55,5.21,3.78,8.22.2,2.7,1.39,6.79-3.92,6.71C408.27,631.44,403.16,631.5,397.39,631.5Zm17-4v-9.24H400.11v9c1.45.1,2.53.23,3.61.24C407,627.49,410.38,627.47,414.35,627.47Z"/><path d="M473.63,560.8V507l1,0v53.75Z"/><path d="M208.42,675.12V778.47h-.58v-103Z"/><path d="M431.67,644.71H330.57v-.54H431.44Z"/><path d="M235.5,676.76V778.58h-.6V676.74Z"/><path d="M479.37,192.11V288.3h-.65V191.94Z"/><path d="M258.24,588.4c.27,5.17,3.25,6.64,8.08,6.61,24.77-.13,49.54-.06,74.31-.07h7.3v1.23H331.38q-32.77,0-65.53,0c-5.3,0-9-1.38-7.61-7.8Z"/><path d="M218.45,43.39H254.8c14.64,0,29.29-.07,43.93.09a8.86,8.86,0,0,1,5.79,2.72c-3.52-.53-7-1.49-10.57-1.51-23-.14-46-.07-68.94-.06h-6.56Z"/><path d="M186.33,44.85c-28.37,0-56.74,0-85.11.11-.6,0-1.2,1.69-1.8,2.58l-1.27-1.81c1.41-.78,2.81-2.23,4.22-2.24,27.93-.13,55.87-.1,83.8-.1Z"/><path d="M340.66,606.75h-88.2v-.63h88.09Z"/><path d="M343.67,601.06H259v-.85H343.4Z"/><path d="M214.73,627.67v44.22h-1.26V627.67Z"/><path d="M443.33,604.12c-4,1.42-6.2,2.9-8.44,2.92-24.34.17-48.68.1-73-1.25h13.54c16.93,0,33.86.11,50.78-.07C431.16,605.67,436.14,604.82,443.33,604.12Z"/><path d="M351.55,546.16c5.69-.45,11.37-1.1,17.07-1.29,6.73-.23,13.48-.05,20.22-.05l0-2H350.86c.88-.64,1.75-1.84,2.63-1.85,11.71-.15,23.41-.21,35.12,0,1,0,2,1.77,2.94,2.71-1.4.8-2.79,2.28-4.21,2.31-10.58.2-21.17.11-31.75.12C354.25,546,352.9,546.12,351.55,546.16Z"/><path d="M337.93,570l9.91-4.86v14C345.23,575.46,336.32,578.19,337.93,570Z"/><path d="M306.89,650.76h73.42v.62H307.16Z"/><path d="M263.13,778.82c-1.71-22.38-1.23-44.72-1.81-67.09l1.81,0Z"/><path d="M425.16,595.88H353.23v-.53h71.93Z"/><path d="M449.72,288.29V255l-2-.09v33.95l-1.75,0v-35c3.3-.87,5.38-.67,5.31,3.74-.16,10.12-.05,20.25-.05,30.37Z"/><path d="M467.18,222.2V289h-.54V222.2Z"/><path d="M294.27,572.26c-4.2,4.53-4.2,4.53-10.41.48-.94,2.39-1.24,5.9-3,6.9-2.1,1.21-5.43.29-8.22.29l0-1.67,6.23.35c.12-1.49.28-2.71.3-3.94S279,572.21,279,571l8.07-1.79Z"/><path d="M359.36,600.73h67.26v.69H359.36Z"/><path d="M380.77,676.46l-1.3,1.08H313.28v-1.08Z"/><path d="M313.28,656.25h61.9v.61h-61.9Z"/><path d="M426.56,720.78v57.94h-.62V720.5Z"/><path d="M453.59,565.41v56.9h-.47v-56.9Z"/><path d="M268.54,778.44V721.85h.63v56.9Z"/><path d="M429.23,721.65v57.17h-.61V721.76Z"/><path d="M478.75,621.72V565.34h.6v56.38Z"/><path d="M467.16,565.34v56.4h-.61v-56.4Z"/><path d="M466.56,560.78v-52.3h.58v52.3Z"/><path d="M419.7,725.25V778.8h-.56V725.25Z"/><path d="M257.86,778.84V725.21h.58v53.63Z"/><path d="M479.36,508.4v51h-.61v-51Z"/><path d="M453.6,508.5v50.89H453V508.5Z"/><path d="M294.27,572.26l-7.22-3H273.86c4.69-1.52,9.84-3.53,15.17-4.79C293,563.5,295.3,567.19,294.27,572.26Z"/><path d="M207.75,670.44V629.11h.55v41.33Z"/><path d="M447.35,485.35V502.9h-1.4V484.32c6.18,0,6.36.69,3.88,18v-17Z"/><path d="M446.51,565.4c-.39,11.85,2.82,23.94-1.93,36.2Z"/><path d="M406.62,569.9,398.9,571l2.31,8.33c-5,1.67-3.33-4.42-6.16-5.27L402,564Z"/><path d="M447.47,508.43v13.08l1.91.09.93-12.9.48,0v13.89l-4.86.57V507.85Z"/><path d="M411,583.35l2.95,3.71,3.63-4.08c.39,2.42,1.29,4.49.71,5.07-1.24,1.23-3.43,2.57-4.9,2.26C410.49,589.69,407.72,588,411,583.35Z"/><path d="M413.41,185.55a25.23,25.23,0,0,1-4,0c-2.75-.45-7.37,1.82-7.43-3.1-.05-4.38,1.28-9.44,6.91-10.06a89.49,89.49,0,0,1,16.19,0c1.27.09,3.41,2.42,3.39,3.69-.07,4-.22,8.58-5.56,9.37-3.09.46-6.29.08-9.45.08ZM405,183.5c15.08,2.89,20.87.79,19.84-7.06C406.12,174.9,405.8,175,405,183.5Z"/><line x1="183.15" y1="44.04" x2="225.02" y2="44.62" style="fill:none;stroke:#231f20;stroke-miterlimit:10;stroke-width:0.5669291615486145px"/><line x1="445.09" y1="143.45" x2="478.71" y2="191.94" style="fill:none;stroke:#231f20;stroke-miterlimit:10;stroke-width:2.8346457481384277px"/><line x1="445.45" y1="164.8" x2="452.62" y2="177.45" style="fill:none;stroke:#231f20;stroke-miterlimit:10;stroke-width:2.8346457481384277px"/></svg>